<?xml version="1.0" encoding="UTF-8" standalone="no"?>
<!-- Created with Inkscape (http://www.inkscape.org/) -->

<svg
   xmlns:dc="http://purl.org/dc/elements/1.1/"
   xmlns:cc="http://creativecommons.org/ns#"
   xmlns:rdf="http://www.w3.org/1999/02/22-rdf-syntax-ns#"
   xmlns:svg="http://www.w3.org/2000/svg"
   xmlns="http://www.w3.org/2000/svg"
   xmlns:sodipodi="http://sodipodi.sourceforge.net/DTD/sodipodi-0.dtd"
   xmlns:inkscape="http://www.inkscape.org/namespaces/inkscape"
   width="160"
   height="160"
   viewBox="0 0 160 159.99999"
   id="svg5742"
   version="1.1"
   inkscape:version="0.91 r13725"
   inkscape:export-filename="/home/kuschku/Desktop/bubble2.png"
   inkscape:export-xdpi="240"
   inkscape:export-ydpi="240"
   sodipodi:docname="favicon.svg">
  <sodipodi:namedview
     id="base"
     pagecolor="#ffffff"
     bordercolor="#666666"
     borderopacity="1.0"
     inkscape:pageopacity="0.0"
     inkscape:pageshadow="2"
     inkscape:zoom="4"
     inkscape:cx="30.801026"
     inkscape:cy="84.376199"
     inkscape:document-units="px"
     inkscape:current-layer="layer1"
     showgrid="false"
     units="px"
     inkscape:window-width="1920"
     inkscape:window-height="1008"
     inkscape:window-x="0"
     inkscape:window-y="0"
     inkscape:window-maximized="1"
     fit-margin-top="0"
     fit-margin-left="0"
     fit-margin-right="0"
     fit-margin-bottom="0">
    <inkscape:grid
       type="xygrid"
       id="grid6290"
       empspacing="4"
       spacingx="4"
       spacingy="4"
       originx="-15.999995"
       originy="-14.999951" />
  </sodipodi:namedview>
  <defs
     id="defs5744">
    <filter
       style="color-interpolation-filters:sRGB"
       inkscape:label="Drop Shadow"
       id="filter6680">
      <feFlood
         flood-opacity="0.247059"
         flood-color="rgb(0,0,0)"
         result="flood"
         id="feFlood6682" />
      <feComposite
         in="flood"
         in2="SourceGraphic"
         operator="in"
         result="composite1"
         id="feComposite6684" />
      <feGaussianBlur
         in="composite1"
         stdDeviation="3"
         result="blur"
         id="feGaussianBlur6686" />
      <feOffset
         dx="0"
         dy="3"
         result="offset"
         id="feOffset6688" />
      <feComposite
         in="offset"
         in2="offset"
         operator="atop"
         result="composite2"
         id="feComposite6690" />
    </filter>
    <filter
       style="color-interpolation-filters:sRGB"
       inkscape:label="Drop Shadow"
       id="filter6756">
      <feFlood
         flood-opacity="0.247059"
         flood-color="rgb(0,0,0)"
         result="flood"
         id="feFlood6758" />
      <feComposite
         in="flood"
         in2="SourceGraphic"
         operator="in"
         result="composite1"
         id="feComposite6760" />
      <feGaussianBlur
         in="composite1"
         stdDeviation="3"
         result="blur"
         id="feGaussianBlur6762" />
      <feOffset
         dx="0"
         dy="3"
         result="offset"
         id="feOffset6764" />
      <feComposite
         in="offset"
         in2="offset"
         operator="atop"
         result="composite2"
         id="feComposite6766" />
    </filter>
    <filter
       style="color-interpolation-filters:sRGB"
       inkscape:label="Drop Shadow"
       id="filter6819">
      <feFlood
         flood-opacity="0.247059"
         flood-color="rgb(0,0,0)"
         result="flood"
         id="feFlood6821" />
      <feComposite
         in="flood"
         in2="SourceGraphic"
         operator="in"
         result="composite1"
         id="feComposite6823" />
      <feGaussianBlur
         in="composite1"
         stdDeviation="3"
         result="blur"
         id="feGaussianBlur6825" />
      <feOffset
         dx="0"
         dy="3"
         result="offset"
         id="feOffset6827" />
      <feComposite
         in="offset"
         in2="offset"
         operator="atop"
         result="composite2"
         id="feComposite6829" />
    </filter>
  </defs>
  <metadata
     id="metadata5747">
    <rdf:RDF>
      <cc:Work
         rdf:about="">
        <dc:format>image/svg+xml</dc:format>
        <dc:type
           rdf:resource="http://purl.org/dc/dcmitype/StillImage" />
        <dc:title></dc:title>
      </cc:Work>
    </rdf:RDF>
  </metadata>
  <g
     inkscape:label="Layer 1"
     inkscape:groupmode="layer"
     id="layer1"
     transform="translate(-15.999994,-877.3622)">
    <path
       style="fill:#1a6fda;fill-opacity:1;fill-rule:evenodd;stroke:none;stroke-width:1px;stroke-linecap:butt;stroke-linejoin:miter;stroke-opacity:1"
       d="M 24 0 A 24 24 0 0 0 22.302734 0.060546875 A 24 24 0 0 0 19.919922 0.34960938 A 24 24 0 0 0 17.580078 0.875 A 24 24 0 0 0 15.302734 1.6308594 A 24 24 0 0 0 13.113281 2.6113281 A 24 24 0 0 0 11.033203 3.8046875 A 24 24 0 0 0 9.0820312 5.1992188 A 24 24 0 0 0 7.2792969 6.7832031 A 24 24 0 0 0 5.6445312 8.5390625 A 24 24 0 0 0 4.1914062 10.449219 A 24 24 0 0 0 2.9375 12.494141 A 24 24 0 0 0 1.8945312 14.654297 A 24 24 0 0 0 1.0722656 16.908203 A 24 24 0 0 0 0.47851562 19.232422 A 24 24 0 0 0 0.11914062 21.603516 A 24 24 0 0 0 0 24 L 0 104 A 24 24 0 0 0 0.060546875 105.69727 A 24 24 0 0 0 0.34960938 108.08008 A 24 24 0 0 0 0.875 110.41992 A 24 24 0 0 0 1.6308594 112.69727 A 24 24 0 0 0 2.6113281 114.88672 A 24 24 0 0 0 3.8046875 116.9668 A 24 24 0 0 0 5.1992188 118.91797 A 24 24 0 0 0 6.7832031 120.7207 A 24 24 0 0 0 8.5390625 122.35547 A 24 24 0 0 0 10.449219 123.80859 A 24 24 0 0 0 12.494141 125.0625 A 24 24 0 0 0 14.654297 126.10547 A 24 24 0 0 0 16.908203 126.92773 A 24 24 0 0 0 19.232422 127.52148 A 24 24 0 0 0 21.603516 127.88086 A 24 24 0 0 0 24 128 L 128 128 L 160 160 L 160 159 L 160 158 L 160 146 L 160 145 L 160 144 L 160 24 A 24 24 0 0 0 159.93945 22.302734 A 24 24 0 0 0 159.65039 19.919922 A 24 24 0 0 0 159.125 17.580078 A 24 24 0 0 0 158.36914 15.302734 A 24 24 0 0 0 157.38867 13.113281 A 24 24 0 0 0 156.19531 11.033203 A 24 24 0 0 0 154.80078 9.0820312 A 24 24 0 0 0 153.2168 7.2792969 A 24 24 0 0 0 151.46094 5.6445312 A 24 24 0 0 0 149.55078 4.1914062 A 24 24 0 0 0 147.50586 2.9375 A 24 24 0 0 0 145.3457 1.8945312 A 24 24 0 0 0 143.0918 1.0722656 A 24 24 0 0 0 140.76758 0.47851562 A 24 24 0 0 0 138.39648 0.11914062 A 24 24 0 0 0 136 0 L 24 0 z "
       transform="translate(15.999994,877.36219)"
       id="path4236" />
    <g
       style="opacity:1;fill:#ffffff;fill-opacity:1;stroke:none;stroke-width:12;stroke-linecap:butt;stroke-linejoin:bevel;stroke-miterlimit:4;stroke-dasharray:none;stroke-dashoffset:0;stroke-opacity:1"
       id="g6441"
       transform="translate(0,860.36216)" />
    <g
       style="opacity:1;fill:#ffffff;fill-opacity:1;stroke:none;stroke-width:12;stroke-linecap:butt;stroke-linejoin:bevel;stroke-miterlimit:4;stroke-dasharray:none;stroke-dashoffset:0;stroke-opacity:1"
       id="g6385"
       transform="translate(0,860.36216)" />
    <ellipse
       style="opacity:1;fill:#ffffff;fill-opacity:1;stroke:none;stroke-width:12;stroke-linecap:butt;stroke-linejoin:bevel;stroke-miterlimit:4;stroke-dasharray:none;stroke-dashoffset:0;stroke-opacity:1"
       id="path6338"
       cx="113.33334"
       cy="956.52893"
       rx="10.833334"
       ry="10.833329" />
    <path
       inkscape:connector-curvature="0"
       id="path6443"
       d="m 95.999994,889.3622 a 52.000003,51.999979 0 0 0 -52,51.99998 52.000003,51.999979 0 0 0 52,52.00002 52.000003,51.999979 0 0 0 51.999996,-52.00002 52.000003,51.999979 0 0 0 -51.999996,-51.99998 z m 0,13 a 39.000002,38.999985 0 0 1 3.89323,0.19466 39.000002,38.999985 0 0 1 3.855146,0.58186 39.000002,38.999985 0 0 1 3.77686,0.96485 39.000002,38.999985 0 0 1 3.66259,1.33725 39.000002,38.999985 0 0 1 3.51026,1.69481 39.000002,38.999985 0 0 1 3.32194,2.0376 39.000002,38.999985 0 0 1 3.10401,2.3592 39.000002,38.999985 0 0 1 2.85221,2.65756 39.000002,38.999985 0 0 1 2.57291,2.92838 39.000002,38.999985 0 0 1 2.26823,3.17172 39.000002,38.999985 0 0 1 1.94026,3.38118 39.000002,38.999985 0 0 1 1.59115,3.55891 39.000002,38.999985 0 0 1 1.22933,3.69857 39.000002,38.999985 0 0 1 0.85481,3.80436 39.000002,38.999985 0 0 1 0.46975,3.86996 39.000002,38.999985 0 0 1 0.0973,2.75911 39.000002,38.999985 0 0 1 -0.19467,3.89323 39.000002,38.999985 0 0 1 -0.58186,3.85513 39.000002,38.999985 0 0 1 -0.96485,3.77686 39.000002,38.999985 0 0 1 -1.33725,3.6626 39.000002,38.999985 0 0 1 -1.69482,3.51026 39.000002,38.999985 0 0 1 -2.03759,3.32404 39.000002,38.999985 0 0 1 -2.3592,3.10189 39.000002,38.999985 0 0 1 -2.65756,2.85221 39.000002,38.999985 0 0 1 -2.92838,2.57293 39.000002,38.999985 0 0 1 -3.17172,2.26823 39.000002,38.999985 0 0 1 -3.38118,1.94025 39.000002,38.999985 0 0 1 -3.55893,1.59115 39.000002,38.999985 0 0 1 -3.69856,1.22933 39.000002,38.999985 0 0 1 -3.80437,0.85482 39.000002,38.999985 0 0 1 -3.869954,0.46972 39.000002,38.999985 0 0 1 -2.759113,0.0973 39.000002,38.999985 0 0 1 -3.893232,-0.19467 39.000002,38.999985 0 0 1 -3.855142,-0.58187 39.000002,38.999985 0 0 1 -3.776853,-0.96483 39.000002,38.999985 0 0 1 -3.662598,-1.33724 39.000002,38.999985 0 0 1 -3.510256,-1.69482 39.000002,38.999985 0 0 1 -3.321939,-2.0376 39.000002,38.999985 0 0 1 -3.104004,-2.35921 39.000002,38.999985 0 0 1 -2.852214,-2.65755 39.000002,38.999985 0 0 1 -2.572917,-2.92838 39.000002,38.999985 0 0 1 -2.26823,-3.17172 39.000002,38.999985 0 0 1 -1.940266,-3.38118 39.000002,38.999985 0 0 1 -1.591146,-3.55893 39.000002,38.999985 0 0 1 -1.229286,-3.69851 39.000002,38.999985 0 0 1 -0.854817,-3.80437 39.000002,38.999985 0 0 1 -0.469728,-3.86994 39.000002,38.999985 0 0 1 -0.09733,-2.75912 39.000002,38.999985 0 0 1 0.194662,-3.89323 39.000002,38.999985 0 0 1 0.581868,-3.85514 39.000002,38.999985 0 0 1 0.964845,-3.77685 39.000002,38.999985 0 0 1 1.33724,-3.6626 39.000002,38.999985 0 0 1 1.694824,-3.51026 39.000002,38.999985 0 0 1 2.037597,-3.32193 39.000002,38.999985 0 0 1 2.359213,-3.10401 39.000002,38.999985 0 0 1 2.657552,-2.8522 39.000002,38.999985 0 0 1 2.928386,-2.57292 39.000002,38.999985 0 0 1 3.171712,-2.26823 39.000002,38.999985 0 0 1 3.381186,-1.94026 39.000002,38.999985 0 0 1 3.558919,-1.59115 39.000002,38.999985 0 0 1 3.698568,-1.22933 39.000002,38.999985 0 0 1 3.804362,-0.85481 39.000002,38.999985 0 0 1 3.869954,-0.46973 39.000002,38.999985 0 0 1 2.759112,-0.0973 z"
       style="opacity:1;fill:#ffffff;fill-opacity:1;stroke:none;stroke-width:12;stroke-linecap:butt;stroke-linejoin:bevel;stroke-miterlimit:4;stroke-dasharray:none;stroke-dashoffset:0;stroke-opacity:1" />
    <path
       inkscape:connector-curvature="0"
       style="fill:#000000;fill-opacity:1;fill-rule:evenodd;stroke:none;stroke-width:1px;stroke-linecap:butt;stroke-linejoin:miter;stroke-opacity:1"
       d="m 124.96728,960.15367 -0.12939,-0.1294 -0.005,0.005 a 12.5,12.499996 0 0 1 0.13428,0.1245 z"
       id="path6598" />
  </g>
</svg>
