<?xml version="1.0" encoding="UTF-8" standalone="no"?>
<svg xmlns:rdf="http://www.w3.org/1999/02/22-rdf-syntax-ns#" xmlns="http://www.w3.org/2000/svg" height="160" width="160" version="1.1" xmlns:cc="http://creativecommons.org/ns#" xmlns:dc="http://purl.org/dc/elements/1.1/" viewBox="0 0 160 159.99999">
<g transform="translate(-16 -877.36)">
<path d="m8 0a8 8 0 0 0 -0.5664 0.019531 8 8 0 0 0 -0.793 0.097659 8 8 0 0 0 -0.7812 0.17383 8 8 0 0 0 -0.7578 0.25195 8 8 0 0 0 -0.7305 0.32812 8 8 0 0 0 -0.6934 0.39651 8 8 0 0 0 -0.6504 0.4668 8 8 0 0 0 -0.6015 0.5273 8 8 0 0 0 -0.5449 0.584 8 8 0 0 0 -0.4844 0.6367 8 8 0 0 0 -0.41798 0.6817 8 8 0 0 0 -0.34766 0.7207 8 8 0 0 0 -0.27344 0.7519 8 8 0 0 0 -0.19726 0.7735 8 8 0 0 0 -0.1211 0.791 8 8 0 0 0 -0.03906 0.7988v1 13 1 1 80 1 1 12 1 1a8 8 0 0 0 0.019531 0.57 8 8 0 0 0 0.097659 0.79 8 8 0 0 0 0.17383 0.78 8 8 0 0 0 0.25195 0.76 8 8 0 0 0 0.32812 0.73 8 8 0 0 0 0.39651 0.69 8 8 0 0 0 0.4648 0.65 8 8 0 0 0 0.5293 0.6 8 8 0 0 0 0.584 0.55 8 8 0 0 0 0.6367 0.48 8 8 0 0 0 0.6817 0.42 8 8 0 0 0 0.7207 0.35 8 8 0 0 0 0.7519 0.27 8 8 0 0 0 0.7735 0.2 8 8 0 0 0 0.791 0.12 8 8 0 0 0 0.7988 0.04h120l32 32v-1-1-12-1-1-120-1-14-1a8 8 0 0 0 -0.02 -0.5664 8 8 0 0 0 -0.1 -0.793 8 8 0 0 0 -0.17 -0.7812 8 8 0 0 0 -0.25 -0.7578 8 8 0 0 0 -0.33 -0.7305 8 8 0 0 0 -0.4 -0.6934 8 8 0 0 0 -0.46 -0.6504 8 8 0 0 0 -0.53 -0.6015 8 8 0 0 0 -0.59 -0.5449 8 8 0 0 0 -0.63 -0.4844 8 8 0 0 0 -0.68 -0.41798 8 8 0 0 0 -0.72 -0.34766 8 8 0 0 0 -0.76 -0.27344 8 8 0 0 0 -0.77 -0.19726 8 8 0 0 0 -0.79 -0.1211 8 8 0 0 0 -0.8 -0.03906h-144z" fill-rule="evenodd" transform="translate(16 877.36)" fill="#1a6fda"/>
<ellipse rx="10.833" ry="10.833" cy="956.53" cx="113.33" fill="#fff"/>
<path d="m96 889.36a52 52 0 0 0 -52 52 52 52 0 0 0 52 52 52 52 0 0 0 52 -52 52 52 0 0 0 -52 -52zm0 13a39 39 0 0 1 3.8932 0.19466 39 39 0 0 1 3.8551 0.58186 39 39 0 0 1 3.7769 0.96485 39 39 0 0 1 3.6626 1.3372 39 39 0 0 1 3.5103 1.6948 39 39 0 0 1 3.3219 2.0376 39 39 0 0 1 3.104 2.3592 39 39 0 0 1 2.8522 2.6576 39 39 0 0 1 2.5729 2.9284 39 39 0 0 1 2.2682 3.1717 39 39 0 0 1 1.9403 3.3812 39 39 0 0 1 1.5912 3.5589 39 39 0 0 1 1.2293 3.6986 39 39 0 0 1 0.85481 3.8044 39 39 0 0 1 0.46975 3.87 39 39 0 0 1 0.0973 2.7591 39 39 0 0 1 -0.19467 3.8932 39 39 0 0 1 -0.58186 3.8551 39 39 0 0 1 -0.96485 3.7769 39 39 0 0 1 -1.3372 3.6626 39 39 0 0 1 -1.6948 3.5103 39 39 0 0 1 -2.0376 3.324 39 39 0 0 1 -2.3592 3.1019 39 39 0 0 1 -2.6576 2.8522 39 39 0 0 1 -2.9284 2.5729 39 39 0 0 1 -3.1717 2.2682 39 39 0 0 1 -3.3812 1.9402 39 39 0 0 1 -3.5589 1.5912 39 39 0 0 1 -3.6986 1.2293 39 39 0 0 1 -3.8044 0.85482 39 39 0 0 1 -3.87 0.46972 39 39 0 0 1 -2.7591 0.0973 39 39 0 0 1 -3.8932 -0.19467 39 39 0 0 1 -3.8551 -0.58187 39 39 0 0 1 -3.7769 -0.96483 39 39 0 0 1 -3.6626 -1.3372 39 39 0 0 1 -3.5103 -1.6948 39 39 0 0 1 -3.3219 -2.0376 39 39 0 0 1 -3.104 -2.3592 39 39 0 0 1 -2.8522 -2.6576 39 39 0 0 1 -2.5729 -2.9284 39 39 0 0 1 -2.2682 -3.1717 39 39 0 0 1 -1.9403 -3.3812 39 39 0 0 1 -1.5911 -3.5589 39 39 0 0 1 -1.2293 -3.6985 39 39 0 0 1 -0.85482 -3.8044 39 39 0 0 1 -0.46973 -3.8699 39 39 0 0 1 -0.09733 -2.7591 39 39 0 0 1 0.19466 -3.8932 39 39 0 0 1 0.58187 -3.8551 39 39 0 0 1 0.96484 -3.7768 39 39 0 0 1 1.3372 -3.6626 39 39 0 0 1 1.6948 -3.5103 39 39 0 0 1 2.0376 -3.3219 39 39 0 0 1 2.3592 -3.104 39 39 0 0 1 2.6576 -2.8522 39 39 0 0 1 2.9284 -2.5729 39 39 0 0 1 3.1717 -2.2682 39 39 0 0 1 3.3812 -1.9403 39 39 0 0 1 3.5589 -1.5912 39 39 0 0 1 3.6986 -1.2293 39 39 0 0 1 3.8044 -0.85481 39 39 0 0 1 3.87 -0.46973 39 39 0 0 1 2.7591 -0.0973z" fill="#fff"/>
<path d="m124.97 960.15-0.12939-0.1294-0.005 0.005a12.5 12.5 0 0 1 0.13428 0.1245z" fill-rule="evenodd"/>
</g>
</svg>
