<?xml version="1.0" encoding="UTF-8" standalone="no"?>
<svg xmlns:rdf="http://www.w3.org/1999/02/22-rdf-syntax-ns#" xmlns="http://www.w3.org/2000/svg" height="128" width="128" version="1.1" xmlns:cc="http://creativecommons.org/ns#" xmlns:dc="http://purl.org/dc/elements/1.1/" viewBox="0 0 128 128">
<g transform="translate(-32 -884.36)" fill="#fff">
<circle cx="112" cy="964.36" r="10"/>
<path d="m96 900.36a48 48 0 0 0 -48 48 48 48 0 0 0 48 48 48 48 0 0 0 48 -48 48 48 0 0 0 -48 -48zm0 12a36 36 0 0 1 3.5938 0.17969 36 36 0 0 1 3.5586 0.53711 36 36 0 0 1 3.4863 0.89062 36 36 0 0 1 3.3809 1.2344 36 36 0 0 1 3.2402 1.5644 36 36 0 0 1 3.0664 1.8809 36 36 0 0 1 2.8652 2.1777 36 36 0 0 1 2.6328 2.4531 36 36 0 0 1 2.375 2.7031 36 36 0 0 1 2.0938 2.9277 36 36 0 0 1 1.791 3.1211 36 36 0 0 1 1.4688 3.2852 36 36 0 0 1 1.1348 3.4141 36 36 0 0 1 0.78906 3.5117 36 36 0 0 1 0.4336 3.5723 36 36 0 0 1 0.0898 2.5469 36 36 0 0 1 -0.17969 3.5938 36 36 0 0 1 -0.53711 3.5586 36 36 0 0 1 -0.89062 3.4863 36 36 0 0 1 -1.2344 3.3809 36 36 0 0 1 -1.5644 3.2402 36 36 0 0 1 -1.8809 3.0684 36 36 0 0 1 -2.1777 2.8633 36 36 0 0 1 -2.4531 2.6328 36 36 0 0 1 -2.7031 2.375 36 36 0 0 1 -2.9277 2.0938 36 36 0 0 1 -3.1211 1.791 36 36 0 0 1 -3.2852 1.4688 36 36 0 0 1 -3.4141 1.1348 36 36 0 0 1 -3.5117 0.78906 36 36 0 0 1 -3.5723 0.4336 36 36 0 0 1 -2.5469 0.0898 36 36 0 0 1 -3.5938 -0.17969 36 36 0 0 1 -3.5586 -0.53711 36 36 0 0 1 -3.4863 -0.89062 36 36 0 0 1 -3.3809 -1.2344 36 36 0 0 1 -3.2402 -1.5644 36 36 0 0 1 -3.0664 -1.8809 36 36 0 0 1 -2.8652 -2.1777 36 36 0 0 1 -2.6328 -2.4531 36 36 0 0 1 -2.375 -2.7031 36 36 0 0 1 -2.0938 -2.9277 36 36 0 0 1 -1.791 -3.1211 36 36 0 0 1 -1.4688 -3.2852 36 36 0 0 1 -1.136 -3.42 36 36 0 0 1 -0.789 -3.51 36 36 0 0 1 -0.433 -3.57 36 36 0 0 1 -0.09 -2.55 36 36 0 0 1 0.17969 -3.5938 36 36 0 0 1 0.53711 -3.5586 36 36 0 0 1 0.89062 -3.4863 36 36 0 0 1 1.2344 -3.3809 36 36 0 0 1 1.5645 -3.2402 36 36 0 0 1 1.8809 -3.0664 36 36 0 0 1 2.1777 -2.8652 36 36 0 0 1 2.4531 -2.6328 36 36 0 0 1 2.7031 -2.375 36 36 0 0 1 2.9277 -2.0938 36 36 0 0 1 3.1211 -1.791 36 36 0 0 1 3.2852 -1.4688 36 36 0 0 1 3.4141 -1.1348 36 36 0 0 1 3.5117 -0.78906 36 36 0 0 1 3.5723 -0.4336 36 36 0 0 1 2.547 -0.09z"/>
</g>
</svg>
