<?xml version="1.0" encoding="UTF-8" standalone="no"?>
<svg xmlns:rdf="http://www.w3.org/1999/02/22-rdf-syntax-ns#" xmlns="http://www.w3.org/2000/svg" xml:space="preserve" height="297mm" width="420mm" version="1.1" xmlns:cc="http://creativecommons.org/ns#" xmlns:dc="http://purl.org/dc/elements/1.1/" viewBox="0 0 1488.189 1052.3621"><title>Entwurf: Liniennetz Stadtbahn Kiel</title><metadata><rdf:RDF><cc:Work rdf:about=""><dc:format>image/svg+xml</dc:format><dc:type rdf:resource="http://purl.org/dc/dcmitype/StillImage"/><dc:title>Entwurf: Liniennetz Stadtbahn Kiel</dc:title><cc:license rdf:resource="http://creativecommons.org/licenses/by-sa/3.0/"/><dc:date>29.08.2015</dc:date><dc:creator><cc:Agent><dc:title>Janne Koschinski</dc:title></cc:Agent></dc:creator></cc:Work><cc:License rdf:about="http://creativecommons.org/licenses/by-sa/3.0/"><cc:permits rdf:resource="http://creativecommons.org/ns#Reproduction"/><cc:permits rdf:resource="http://creativecommons.org/ns#Distribution"/><cc:requires rdf:resource="http://creativecommons.org/ns#Notice"/><cc:requires rdf:resource="http://creativecommons.org/ns#Attribution"/><cc:permits rdf:resource="http://creativecommons.org/ns#DerivativeWorks"/><cc:requires rdf:resource="http://creativecommons.org/ns#ShareAlike"/></cc:License></rdf:RDF></metadata><defs><clipPath id="bg" clipPathUnits="userSpaceOnUse"><path d="m567.71 517.36h3.866v3.866h-3.866v-3.866z"/></clipPath><clipPath id="e" clipPathUnits="userSpaceOnUse"><path d="m567.71 517.36h3.866v3.866h-3.866v-3.866z"/></clipPath><clipPath id="c" clipPathUnits="userSpaceOnUse"><path d="m567.71 517.36h3.866v3.866h-3.866v-3.866z"/></clipPath><clipPath id="d" clipPathUnits="userSpaceOnUse"><path d="m567.71 517.36h3.866v3.866h-3.866v-3.866z"/></clipPath><clipPath id="bf" clipPathUnits="userSpaceOnUse"><path d="m567.71 517.36h3.866v3.866h-3.866v-3.866z"/></clipPath><clipPath id="b" clipPathUnits="userSpaceOnUse"><path d="m567.71 517.36h3.866v3.866h-3.866v-3.866z"/></clipPath><clipPath id="a" clipPathUnits="userSpaceOnUse"><path d="m567.71 517.36h3.866v3.866h-3.866v-3.866z"/></clipPath><clipPath id="be" clipPathUnits="userSpaceOnUse"><path d="m567.71 517.36h3.866v3.866h-3.866v-3.866z"/></clipPath><clipPath id="ac" clipPathUnits="userSpaceOnUse"><path d="m567.71 517.36h3.866v3.866h-3.866v-3.866z"/></clipPath><clipPath id="h" clipPathUnits="userSpaceOnUse"><path d="m567.71 517.36h3.866v3.866h-3.866v-3.866z"/></clipPath><clipPath id="q" clipPathUnits="userSpaceOnUse"><path d="m567.71 517.36h3.866v3.866h-3.866v-3.866z"/></clipPath><clipPath id="ay" clipPathUnits="userSpaceOnUse"><path d="m567.71 517.36h3.866v3.866h-3.866v-3.866z"/></clipPath><clipPath id="v" clipPathUnits="userSpaceOnUse"><path d="m567.71 517.36h3.866v3.866h-3.866v-3.866z"/></clipPath><clipPath id="av" clipPathUnits="userSpaceOnUse"><path d="m567.71 517.36h3.866v3.866h-3.866v-3.866z"/></clipPath><clipPath id="x" clipPathUnits="userSpaceOnUse"><path d="m567.71 517.36h3.866v3.866h-3.866v-3.866z"/></clipPath><clipPath id="ab" clipPathUnits="userSpaceOnUse"><path d="m567.71 517.36h3.866v3.866h-3.866v-3.866z"/></clipPath><clipPath id="f" clipPathUnits="userSpaceOnUse"><path d="m567.71 517.36h3.866v3.866h-3.866v-3.866z"/></clipPath><clipPath id="bb" clipPathUnits="userSpaceOnUse"><path d="m567.71 517.36h3.866v3.866h-3.866v-3.866z"/></clipPath><clipPath id="i" clipPathUnits="userSpaceOnUse"><path d="m567.71 517.36h3.866v3.866h-3.866v-3.866z"/></clipPath><clipPath id="l" clipPathUnits="userSpaceOnUse"><path d="m567.71 517.36h3.866v3.866h-3.866v-3.866z"/></clipPath><clipPath id="an" clipPathUnits="userSpaceOnUse"><path d="m567.71 517.36h3.866v3.866h-3.866v-3.866z"/></clipPath><clipPath id="bd" clipPathUnits="userSpaceOnUse"><path d="m567.71 517.36h3.866v3.866h-3.866v-3.866z"/></clipPath><clipPath id="ak" clipPathUnits="userSpaceOnUse"><path d="m567.71 517.36h3.866v3.866h-3.866v-3.866z"/></clipPath><clipPath id="az" clipPathUnits="userSpaceOnUse"><path d="m567.71 517.36h3.866v3.866h-3.866v-3.866z"/></clipPath><clipPath id="g" clipPathUnits="userSpaceOnUse"><path d="m567.71 517.36h3.866v3.866h-3.866v-3.866z"/></clipPath><clipPath id="j" clipPathUnits="userSpaceOnUse"><path d="m567.71 517.36h3.866v3.866h-3.866v-3.866z"/></clipPath><clipPath id="r" clipPathUnits="userSpaceOnUse"><path d="m567.71 517.36h3.866v3.866h-3.866v-3.866z"/></clipPath><clipPath id="ai" clipPathUnits="userSpaceOnUse"><path d="m567.71 517.36h3.866v3.866h-3.866v-3.866z"/></clipPath><clipPath id="t" clipPathUnits="userSpaceOnUse"><path d="m567.71 517.36h3.866v3.866h-3.866v-3.866z"/></clipPath><clipPath id="ad" clipPathUnits="userSpaceOnUse"><path d="m567.71 517.36h3.866v3.866h-3.866v-3.866z"/></clipPath><clipPath id="ao" clipPathUnits="userSpaceOnUse"><path d="m567.71 517.36h3.866v3.866h-3.866v-3.866z"/></clipPath><clipPath id="au" clipPathUnits="userSpaceOnUse"><path d="m567.71 517.36h3.866v3.866h-3.866v-3.866z"/></clipPath><clipPath id="s" clipPathUnits="userSpaceOnUse"><path d="m567.71 517.36h3.866v3.866h-3.866v-3.866z"/></clipPath><clipPath id="k" clipPathUnits="userSpaceOnUse"><path d="m567.71 517.36h3.866v3.866h-3.866v-3.866z"/></clipPath><clipPath id="m" clipPathUnits="userSpaceOnUse"><path d="m567.71 517.36h3.866v3.866h-3.866v-3.866z"/></clipPath><clipPath id="bc" clipPathUnits="userSpaceOnUse"><path d="m567.71 517.36h3.866v3.866h-3.866v-3.866z"/></clipPath><clipPath id="ax" clipPathUnits="userSpaceOnUse"><path d="m567.71 517.36h3.866v3.866h-3.866v-3.866z"/></clipPath><clipPath id="w" clipPathUnits="userSpaceOnUse"><path d="m567.71 517.36h3.866v3.866h-3.866v-3.866z"/></clipPath><clipPath id="aw" clipPathUnits="userSpaceOnUse"><path d="m567.71 517.36h3.866v3.866h-3.866v-3.866z"/></clipPath><clipPath id="aa" clipPathUnits="userSpaceOnUse"><path d="m567.71 517.36h3.866v3.866h-3.866v-3.866z"/></clipPath><clipPath id="u" clipPathUnits="userSpaceOnUse"><path d="m567.71 517.36h3.866v3.866h-3.866v-3.866z"/></clipPath><clipPath id="aj" clipPathUnits="userSpaceOnUse"><path d="m567.71 517.36h3.866v3.866h-3.866v-3.866z"/></clipPath><clipPath id="z" clipPathUnits="userSpaceOnUse"><path d="m567.71 517.36h3.866v3.866h-3.866v-3.866z"/></clipPath><clipPath id="as" clipPathUnits="userSpaceOnUse"><path d="m567.71 517.36h3.866v3.866h-3.866v-3.866z"/></clipPath><clipPath id="ag" clipPathUnits="userSpaceOnUse"><path d="m567.71 517.36h3.866v3.866h-3.866v-3.866z"/></clipPath><clipPath id="am" clipPathUnits="userSpaceOnUse"><path d="m567.71 517.36h3.866v3.866h-3.866v-3.866z"/></clipPath><clipPath id="ba" clipPathUnits="userSpaceOnUse"><path d="m567.71 517.36h3.866v3.866h-3.866v-3.866z"/></clipPath><clipPath id="al" clipPathUnits="userSpaceOnUse"><path d="m567.71 517.36h3.866v3.866h-3.866v-3.866z"/></clipPath><clipPath id="ap" clipPathUnits="userSpaceOnUse"><path d="m567.71 517.36h3.866v3.866h-3.866v-3.866z"/></clipPath><clipPath id="ah" clipPathUnits="userSpaceOnUse"><path d="m567.71 517.36h3.866v3.866h-3.866v-3.866z"/></clipPath><clipPath id="at" clipPathUnits="userSpaceOnUse"><path d="m567.71 517.36h3.866v3.866h-3.866v-3.866z"/></clipPath><clipPath id="af" clipPathUnits="userSpaceOnUse"><path d="m567.71 517.36h3.866v3.866h-3.866v-3.866z"/></clipPath><clipPath id="ar" clipPathUnits="userSpaceOnUse"><path d="m567.71 517.36h3.866v3.866h-3.866v-3.866z"/></clipPath><clipPath id="ae" clipPathUnits="userSpaceOnUse"><path d="m567.71 517.36h3.866v3.866h-3.866v-3.866z"/></clipPath><clipPath id="aq" clipPathUnits="userSpaceOnUse"><path d="m567.71 517.36h3.866v3.866h-3.866v-3.866z"/></clipPath><clipPath id="p" clipPathUnits="userSpaceOnUse"><path d="m567.71 517.36h3.866v3.866h-3.866v-3.866z"/></clipPath><clipPath id="n" clipPathUnits="userSpaceOnUse"><path d="m567.71 517.36h3.866v3.866h-3.866v-3.866z"/></clipPath><clipPath id="o" clipPathUnits="userSpaceOnUse"><path d="m567.71 517.36h3.866v3.866h-3.866v-3.866z"/></clipPath><clipPath id="y" clipPathUnits="userSpaceOnUse"><path d="m567.71 517.36h3.866v3.866h-3.866v-3.866z"/></clipPath></defs><g transform="translate(0 -.00036409)"><rect height="1052.4" width="1488.2" y=".00037081" x="0" fill="#fff"/></g><g transform="translate(0 -.00036409)"><path d="m1111.6 589.32-127.62 0.065-51.804 51.844-60.355 0.006-79.11 79.118 0.03 41.181h-20.284l-0.0263-94.861 120.42-120.38 0.013-107.55-31.119-31.459 0.004-109.76-197.26-0.06-55.042-54.849h-232.67l-150.44 150.5-10.554-10.658 154.82-154.84h245l55.044 54.849 34.972 0.155 29.148-29.004 68.179 0.12875 24.458-24.554 0.0587-52.268 205.1-0.009 18.038-18.238v-51.272l80.614-80.634 145.96-0.055-129.77 129.7 0.066 71.212-87.408 87.538v104.4l-41.48 41.029 24.816 24.929-9.725 9.62-16.461-16.408-16.335 16.359 0.082 25.156 48.991 49.26h158.78l177.28 177.58h80.786v7.7212h-84.49l-177.28-177.41-81.286 0.0925-12.152 11.815z" fill="#d3e7f8"/><g stroke-width="2.48" fill="none"><g stroke-linejoin="round"><path d="m744.75 709.67v134.85l7.6788 7.5108 251.04-0.15875h446.53" stroke="#810888"/><path d="m826.11 337.01-21.606 21.606 0.2325 211.31v44.991l-24.218 24.217-10.401 10.344-21.911 0.0937-7.6875 7.6875v132.06h-32l-103.59 103.59h-64.7l-40.482 40.482h-18.915" stroke="#303f9f"/><path d="m31.201 755.49c159.95-0.021 291.36 0.0692 450.92-0.29662l71.954 71.791h149.33l24.688-24.688v-92.627" stroke="#4a148c"/></g><g><path stroke-linejoin="round" d="m582.56 418.23 77.555 77.62 72.178-0.001-0.0925 182.21v35.772" stroke="#d50000"/><path stroke-linejoin="round" d="m298.46 185.89 116.47 116.47v146.93l0.0838 232.78 141.01 140.92 145.82-0.0613 22.135-22.135v-91.197" stroke="#558b2f"/><path d="m748.83 709.69v133.17l5.337 5.337h144.84l93.918-93.918h101.08l184.46-184.46 164.75-164.75" stroke="#0277bd"/><path stroke-linejoin="round" d="m1121.5 612.64h-85.226l-70.274 70.274h-47.014l-10.469 10.469v54.983l-9.6776 9.6738h-13.824-55.092l-27.424 27.424h-66.159s-0.25775-459.81-0.25875-478.01" stroke="#f9b000"/></g></g><text font-size="22.5px" line-height="125%" y="156.47536" x="287.51196" font-family="&apos;Info Disp Semibold&apos;" fill="#505050"><tspan y="156.47536" x="287.51196">Stadtbahn Kiel</tspan></text>
<text line-height="89.99999762%" font-size="36px" transform="matrix(1.25 0 0 1.25 256.61 130.23)" font-family="&apos;Info Disp Semibold&apos;" fill="#282828"><tspan y="0" x="0">Liniennetz</tspan></text>
<g transform="matrix(1.25 0 0 -1.25 24.183 957.48)"><g clip-path="url(#ac)"><g transform="translate(571.27 519.29)"><path d="m0 0c0-0.903-0.731-1.634-1.634-1.634-0.901 0-1.632 0.731-1.632 1.634s0.731 1.634 1.632 1.634c0.903 0 1.634-0.731 1.634-1.634" fill="#fff"/></g><g transform="translate(571.27 519.29)"><path d="m0 0c0-0.903-0.731-1.634-1.634-1.634-0.901 0-1.632 0.731-1.632 1.634s0.731 1.634 1.632 1.634c0.903 0 1.634-0.731 1.634-1.634z" stroke="#000" stroke-width="0.6" fill="none"/></g></g></g><g transform="matrix(1.25 0 0 -1.25 -611.36 1404.7)"><g clip-path="url(#t)"><g transform="translate(571.27 519.29)"><path d="m0 0c0-0.903-0.731-1.634-1.634-1.634-0.901 0-1.632 0.731-1.632 1.634s0.731 1.634 1.632 1.634c0.903 0 1.634-0.731 1.634-1.634" fill="#fff"/></g><g transform="translate(571.27 519.29)"><path d="m0 0c0-0.903-0.731-1.634-1.634-1.634-0.901 0-1.632 0.731-1.632 1.634s0.731 1.634 1.632 1.634c0.903 0 1.634-0.731 1.634-1.634z" stroke="#000" stroke-width="0.6" fill="none"/></g></g></g><g transform="matrix(1.25 0 0 -1.25 -230.55 1582.3)"><g clip-path="url(#ax)"><g transform="translate(571.27 519.29)"><path d="m0 0c0-0.903-0.731-1.634-1.634-1.634-0.901 0-1.632 0.731-1.632 1.634s0.731 1.634 1.632 1.634c0.903 0 1.634-0.731 1.634-1.634" fill="#fff"/></g><g transform="translate(571.27 519.29)"><path d="m0 0c0-0.903-0.731-1.634-1.634-1.634-0.901 0-1.632 0.731-1.632 1.634s0.731 1.634 1.632 1.634c0.903 0 1.634-0.731 1.634-1.634z" stroke="#000" stroke-width="0.6" fill="none"/></g></g></g><path d="m748.83 713.74v129.12l5.337 5.337h144.84l93.918-93.918h101.08l184.46-184.46 164.75-164.75" stroke="#fff" stroke-dasharray="12.8, 12.8" stroke-width="1.6" fill="none"/><path stroke-linejoin="round" d="m744.75 713.17v131.35l7.6788 7.5108 251.04-0.15875h446.53" stroke="#fff" stroke-dasharray="12.8, 12.8" stroke-width="1.6" fill="none"/><g transform="matrix(1.25 0 0 -1.25 24.183 1012.1)"><g clip-path="url(#a)"><g transform="translate(571.27 519.29)"><path d="m0 0c0-0.903-0.731-1.634-1.634-1.634-0.901 0-1.632 0.731-1.632 1.634s0.731 1.634 1.632 1.634c0.903 0 1.634-0.731 1.634-1.634" fill="#fff"/></g><g transform="translate(571.27 519.29)"><path d="m0 0c0-0.903-0.731-1.634-1.634-1.634-0.901 0-1.632 0.731-1.632 1.634s0.731 1.634 1.632 1.634c0.903 0 1.634-0.731 1.634-1.634z" stroke="#000" stroke-width="0.6" fill="none"/></g></g></g><g transform="matrix(1.25 0 0 -1.25 24.183 984.82)"><g clip-path="url(#be)"><g transform="translate(571.27 519.29)"><path d="m0 0c0-0.903-0.731-1.634-1.634-1.634-0.901 0-1.632 0.731-1.632 1.634s0.731 1.634 1.632 1.634c0.903 0 1.634-0.731 1.634-1.634" fill="#fff"/></g><g transform="translate(571.27 519.29)"><path d="m0 0c0-0.903-0.731-1.634-1.634-1.634-0.901 0-1.632 0.731-1.632 1.634s0.731 1.634 1.632 1.634c0.903 0 1.634-0.731 1.634-1.634z" stroke="#000" stroke-width="0.6" fill="none"/></g></g></g><g transform="matrix(1.25 0 0 -1.25 53.392 1298.8)"><g clip-path="url(#z)"><g transform="translate(571.27 519.29)"><path d="m0 0c0-0.903-0.731-1.634-1.634-1.634-0.901 0-1.632 0.731-1.632 1.634s0.731 1.634 1.632 1.634c0.903 0 1.634-0.731 1.634-1.634" fill="#fff"/></g><g transform="translate(571.27 519.29)"><path d="m0 0c0-0.903-0.731-1.634-1.634-1.634-0.901 0-1.632 0.731-1.632 1.634s0.731 1.634 1.632 1.634c0.903 0 1.634-0.731 1.634-1.634z" stroke="#000" stroke-width="0.6" fill="none"/></g></g></g><g transform="matrix(1.25 0 0 -1.25 -47.03 1145)"><g clip-path="url(#w)"><g transform="translate(571.27 519.29)"><path d="m0 0c0-0.903-0.731-1.634-1.634-1.634-0.901 0-1.632 0.731-1.632 1.634s0.731 1.634 1.632 1.634c0.903 0 1.634-0.731 1.634-1.634" fill="#fff"/></g><g transform="translate(571.27 519.29)"><path d="m0 0c0-0.903-0.731-1.634-1.634-1.634-0.901 0-1.632 0.731-1.632 1.634s0.731 1.634 1.632 1.634c0.903 0 1.634-0.731 1.634-1.634z" stroke="#000" stroke-width="0.6" fill="none"/></g></g></g><g transform="matrix(1.25 0 0 -1.25 -76.539 1120.2)"><g clip-path="url(#aw)"><g transform="translate(571.27 519.29)"><path d="m0 0c0-0.903-0.731-1.634-1.634-1.634-0.901 0-1.632 0.731-1.632 1.634s0.731 1.634 1.632 1.634c0.903 0 1.634-0.731 1.634-1.634" fill="#fff"/></g><g transform="translate(571.27 519.29)"><path d="m0 0c0-0.903-0.731-1.634-1.634-1.634-0.901 0-1.632 0.731-1.632 1.634s0.731 1.634 1.632 1.634c0.903 0 1.634-0.731 1.634-1.634z" stroke="#000" stroke-width="0.6" fill="none"/></g></g></g><g transform="matrix(1.25 0 0 -1.25 -96.619 1100.4)"><g clip-path="url(#aa)"><g transform="translate(571.27 519.29)"><path d="m0 0c0-0.903-0.731-1.634-1.634-1.634-0.901 0-1.632 0.731-1.632 1.634s0.731 1.634 1.632 1.634c0.903 0 1.634-0.731 1.634-1.634" fill="#fff"/></g><g transform="translate(571.27 519.29)"><path d="m0 0c0-0.903-0.731-1.634-1.634-1.634-0.901 0-1.632 0.731-1.632 1.634s0.731 1.634 1.632 1.634c0.903 0 1.634-0.731 1.634-1.634z" stroke="#000" stroke-width="0.6" fill="none"/></g></g></g><g transform="matrix(1.25 0 0 -1.25 -114.96 1081.9)"><g clip-path="url(#u)"><g transform="translate(571.27 519.29)"><path d="m0 0c0-0.903-0.731-1.634-1.634-1.634-0.901 0-1.632 0.731-1.632 1.634s0.731 1.634 1.632 1.634c0.903 0 1.634-0.731 1.634-1.634" fill="#fff"/></g><g transform="translate(571.27 519.29)"><path d="m0 0c0-0.903-0.731-1.634-1.634-1.634-0.901 0-1.632 0.731-1.632 1.634s0.731 1.634 1.632 1.634c0.903 0 1.634-0.731 1.634-1.634z" stroke="#000" stroke-width="0.6" fill="none"/></g></g></g><g transform="matrix(1.25 0 0 -1.25 -129.43 1067.5)"><g clip-path="url(#aj)"><g transform="translate(571.27 519.29)"><path d="m0 0c0-0.903-0.731-1.634-1.634-1.634-0.901 0-1.632 0.731-1.632 1.634s0.731 1.634 1.632 1.634c0.903 0 1.634-0.731 1.634-1.634" fill="#fff"/></g><g transform="translate(571.27 519.29)"><path d="m0 0c0-0.903-0.731-1.634-1.634-1.634-0.901 0-1.632 0.731-1.632 1.634s0.731 1.634 1.632 1.634c0.903 0 1.634-0.731 1.634-1.634z" stroke="#000" stroke-width="0.6" fill="none"/></g></g></g><g transform="matrix(1.25 0 0 -1.25 24.183 1052.2)"><g clip-path="url(#bg)"><g transform="translate(571.27 519.29)"><path d="m0 0c0-0.903-0.731-1.634-1.634-1.634-0.901 0-1.632 0.731-1.632 1.634s0.731 1.634 1.632 1.634c0.903 0 1.634-0.731 1.634-1.634" fill="#fff"/></g><g transform="translate(571.27 519.29)"><path d="m0 0c0-0.903-0.731-1.634-1.634-1.634-0.901 0-1.632 0.731-1.632 1.634s0.731 1.634 1.632 1.634c0.903 0 1.634-0.731 1.634-1.634z" stroke="#000" stroke-width="0.6" fill="none"/></g></g></g><g transform="matrix(1.25 0 0 -1.25 24.183 1069.1)"><g clip-path="url(#e)"><g transform="translate(571.27 519.29)"><path d="m0 0c0-0.903-0.731-1.634-1.634-1.634-0.901 0-1.632 0.731-1.632 1.634s0.731 1.634 1.632 1.634c0.903 0 1.634-0.731 1.634-1.634" fill="#fff"/></g><g transform="translate(571.27 519.29)"><path d="m0 0c0-0.903-0.731-1.634-1.634-1.634-0.901 0-1.632 0.731-1.632 1.634s0.731 1.634 1.632 1.634c0.903 0 1.634-0.731 1.634-1.634z" stroke="#000" stroke-width="0.6" fill="none"/></g></g></g><g transform="matrix(1.25 0 0 -1.25 24.183 1085.8)"><g clip-path="url(#c)"><g transform="translate(571.27 519.29)"><path d="m0 0c0-0.903-0.731-1.634-1.634-1.634-0.901 0-1.632 0.731-1.632 1.634s0.731 1.634 1.632 1.634c0.903 0 1.634-0.731 1.634-1.634" fill="#fff"/></g><g transform="translate(571.27 519.29)"><path d="m0 0c0-0.903-0.731-1.634-1.634-1.634-0.901 0-1.632 0.731-1.632 1.634s0.731 1.634 1.632 1.634c0.903 0 1.634-0.731 1.634-1.634z" stroke="#000" stroke-width="0.6" fill="none"/></g></g></g><g transform="matrix(1.25 0 0 -1.25 24.183 1105.6)"><g clip-path="url(#d)"><g transform="translate(571.27 519.29)"><path d="m0 0c0-0.903-0.731-1.634-1.634-1.634-0.901 0-1.632 0.731-1.632 1.634s0.731 1.634 1.632 1.634c0.903 0 1.634-0.731 1.634-1.634" fill="#fff"/></g><g transform="translate(571.27 519.29)"><path d="m0 0c0-0.903-0.731-1.634-1.634-1.634-0.901 0-1.632 0.731-1.632 1.634s0.731 1.634 1.632 1.634c0.903 0 1.634-0.731 1.634-1.634z" stroke="#000" stroke-width="0.6" fill="none"/></g></g></g><g transform="matrix(1.25 0 0 -1.25 24.183 1126)"><g clip-path="url(#bf)"><g transform="translate(571.27 519.29)"><path d="m0 0c0-0.903-0.731-1.634-1.634-1.634-0.901 0-1.632 0.731-1.632 1.634s0.731 1.634 1.632 1.634c0.903 0 1.634-0.731 1.634-1.634" fill="#fff"/></g><g transform="translate(571.27 519.29)"><path d="m0 0c0-0.903-0.731-1.634-1.634-1.634-0.901 0-1.632 0.731-1.632 1.634s0.731 1.634 1.632 1.634c0.903 0 1.634-0.731 1.634-1.634z" stroke="#000" stroke-width="0.6" fill="none"/></g></g></g><g transform="matrix(1.25 0 0 -1.25 24.183 1035.4)"><g clip-path="url(#b)"><g transform="translate(571.27 519.29)"><path d="m0 0c0-0.903-0.731-1.634-1.634-1.634-0.901 0-1.632 0.731-1.632 1.634s0.731 1.634 1.632 1.634c0.903 0 1.634-0.731 1.634-1.634" fill="#fff"/></g><g transform="translate(571.27 519.29)"><path d="m0 0c0-0.903-0.731-1.634-1.634-1.634-0.901 0-1.632 0.731-1.632 1.634s0.731 1.634 1.632 1.634c0.903 0 1.634-0.731 1.634-1.634z" stroke="#000" stroke-width="0.6" fill="none"/></g></g></g><g transform="matrix(1.25 0 0 -1.25 -30.552 1465.7)"><g clip-path="url(#ad)"><g transform="translate(571.27 519.29)"><path d="m0 0c0-0.903-0.731-1.634-1.634-1.634-0.901 0-1.632 0.731-1.632 1.634s0.731 1.634 1.632 1.634c0.903 0 1.634-0.731 1.634-1.634" fill="#fff"/></g><g transform="translate(571.27 519.29)"><path d="m0 0c0-0.903-0.731-1.634-1.634-1.634-0.901 0-1.632 0.731-1.632 1.634s0.731 1.634 1.632 1.634c0.903 0 1.634-0.731 1.634-1.634z" stroke="#000" stroke-width="0.6" fill="none"/></g></g></g><g transform="matrix(1.25 0 0 -1.25 -52.67 1487.3)"><g clip-path="url(#ao)"><g transform="translate(571.27 519.29)"><path d="m0 0c0-0.903-0.731-1.634-1.634-1.634-0.901 0-1.632 0.731-1.632 1.634s0.731 1.634 1.632 1.634c0.903 0 1.634-0.731 1.634-1.634" fill="#fff"/></g><g transform="translate(571.27 519.29)"><path d="m0 0c0-0.903-0.731-1.634-1.634-1.634-0.901 0-1.632 0.731-1.632 1.634s0.731 1.634 1.632 1.634c0.903 0 1.634-0.731 1.634-1.634z" stroke="#000" stroke-width="0.6" fill="none"/></g></g></g><g transform="matrix(1.25 0 0 -1.25 -67.092 1502)"><g clip-path="url(#au)"><g transform="translate(571.27 519.29)"><path d="m0 0c0-0.903-0.731-1.634-1.634-1.634-0.901 0-1.632 0.731-1.632 1.634s0.731 1.634 1.632 1.634c0.903 0 1.634-0.731 1.634-1.634" fill="#fff"/></g><g transform="translate(571.27 519.29)"><path d="m0 0c0-0.903-0.731-1.634-1.634-1.634-0.901 0-1.632 0.731-1.632 1.634s0.731 1.634 1.632 1.634c0.903 0 1.634-0.731 1.634-1.634z" stroke="#000" stroke-width="0.6" fill="none"/></g></g></g><g transform="matrix(1.25 0 0 -1.25 -78.716 1513.7)"><g clip-path="url(#s)"><g transform="translate(571.27 519.29)"><path d="m0 0c0-0.903-0.731-1.634-1.634-1.634-0.901 0-1.632 0.731-1.632 1.634s0.731 1.634 1.632 1.634c0.903 0 1.634-0.731 1.634-1.634" fill="#fff"/></g><g transform="translate(571.27 519.29)"><path d="m0 0c0-0.903-0.731-1.634-1.634-1.634-0.901 0-1.632 0.731-1.632 1.634s0.731 1.634 1.632 1.634c0.903 0 1.634-0.731 1.634-1.634z" stroke="#000" stroke-width="0.6" fill="none"/></g></g></g><g transform="matrix(1.25 0 0 -1.25 -102.45 1537.3)"><g clip-path="url(#k)"><g transform="translate(571.27 519.29)"><path d="m0 0c0-0.903-0.731-1.634-1.634-1.634-0.901 0-1.632 0.731-1.632 1.634s0.731 1.634 1.632 1.634c0.903 0 1.634-0.731 1.634-1.634" fill="#fff"/></g><g transform="translate(571.27 519.29)"><path d="m0 0c0-0.903-0.731-1.634-1.634-1.634-0.901 0-1.632 0.731-1.632 1.634s0.731 1.634 1.632 1.634c0.903 0 1.634-0.731 1.634-1.634z" stroke="#000" stroke-width="0.6" fill="none"/></g></g></g><g transform="matrix(1.25 0 0 -1.25 -158.44 1542.1)"><g clip-path="url(#m)"><g transform="translate(571.27 519.29)"><path d="m0 0c0-0.903-0.731-1.634-1.634-1.634-0.901 0-1.632 0.731-1.632 1.634s0.731 1.634 1.632 1.634c0.903 0 1.634-0.731 1.634-1.634" fill="#fff"/></g><g transform="translate(571.27 519.29)"><path d="m0 0c0-0.903-0.731-1.634-1.634-1.634-0.901 0-1.632 0.731-1.632 1.634s0.731 1.634 1.632 1.634c0.903 0 1.634-0.731 1.634-1.634z" stroke="#000" stroke-width="0.6" fill="none"/></g></g></g><g transform="matrix(1.25 0 0 -1.25 -198.43 1568.4)"><g clip-path="url(#bc)"><g transform="translate(571.27 519.29)"><path d="m0 0c0-0.903-0.731-1.634-1.634-1.634-0.901 0-1.632 0.731-1.632 1.634s0.731 1.634 1.632 1.634c0.903 0 1.634-0.731 1.634-1.634" fill="#fff"/></g><g transform="translate(571.27 519.29)"><path d="m0 0c0-0.903-0.731-1.634-1.634-1.634-0.901 0-1.632 0.731-1.632 1.634s0.731 1.634 1.632 1.634c0.903 0 1.634-0.731 1.634-1.634z" stroke="#000" stroke-width="0.6" fill="none"/></g></g></g><g transform="matrix(1.25 0 0 -1.25 117.83 1407.1)"><g clip-path="url(#q)"><g transform="translate(571.27 519.29)"><path d="m0 0c0-0.903-0.731-1.634-1.634-1.634-0.901 0-1.632 0.731-1.632 1.634s0.731 1.634 1.632 1.634c0.903 0 1.634-0.731 1.634-1.634" fill="#fff"/></g><g transform="translate(571.27 519.29)"><path d="m0 0c0-0.903-0.731-1.634-1.634-1.634-0.901 0-1.632 0.731-1.632 1.634s0.731 1.634 1.632 1.634c0.903 0 1.634-0.731 1.634-1.634z" stroke="#000" stroke-width="0.6" fill="none"/></g></g></g><g transform="matrix(1.25 0 0 -1.25 196.4 1371.5)"><g clip-path="url(#ay)"><g transform="translate(571.27 519.29)"><path d="m0 0c0-0.903-0.731-1.634-1.634-1.634-0.901 0-1.632 0.731-1.632 1.634s0.731 1.634 1.632 1.634c0.903 0 1.634-0.731 1.634-1.634" fill="#fff"/></g><g transform="translate(571.27 519.29)"><path d="m0 0c0-0.903-0.731-1.634-1.634-1.634-0.901 0-1.632 0.731-1.632 1.634s0.731 1.634 1.632 1.634c0.903 0 1.634-0.731 1.634-1.634z" stroke="#000" stroke-width="0.6" fill="none"/></g></g></g><g transform="matrix(1.25 0 0 -1.25 206.92 1332)"><g clip-path="url(#v)"><g transform="translate(571.27 519.29)"><path d="m0 0c0-0.903-0.731-1.634-1.634-1.634-0.901 0-1.632 0.731-1.632 1.634s0.731 1.634 1.632 1.634c0.903 0 1.634-0.731 1.634-1.634" fill="#fff"/></g><g transform="translate(571.27 519.29)"><path d="m0 0c0-0.903-0.731-1.634-1.634-1.634-0.901 0-1.632 0.731-1.632 1.634s0.731 1.634 1.632 1.634c0.903 0 1.634-0.731 1.634-1.634z" stroke="#000" stroke-width="0.6" fill="none"/></g></g></g><g transform="matrix(1.25 0 0 -1.25 287.27 1299.3)"><g clip-path="url(#av)"><g transform="translate(571.27 519.29)"><path d="m0 0c0-0.903-0.731-1.634-1.634-1.634-0.901 0-1.632 0.731-1.632 1.634s0.731 1.634 1.632 1.634c0.903 0 1.634-0.731 1.634-1.634" fill="#fff"/></g><g transform="translate(571.27 519.29)"><path d="m0 0c0-0.903-0.731-1.634-1.634-1.634-0.901 0-1.632 0.731-1.632 1.634s0.731 1.634 1.632 1.634c0.903 0 1.634-0.731 1.634-1.634z" stroke="#000" stroke-width="0.6" fill="none"/></g></g></g><g transform="matrix(1.25 0 0 -1.25 325.45 1403.6)"><g clip-path="url(#x)"><g transform="translate(571.27 519.29)"><path d="m0 0c0-0.903-0.731-1.634-1.634-1.634-0.901 0-1.632 0.731-1.632 1.634s0.731 1.634 1.632 1.634c0.903 0 1.634-0.731 1.634-1.634" fill="#fff"/></g><g transform="translate(571.27 519.29)"><path d="m0 0c0-0.903-0.731-1.634-1.634-1.634-0.901 0-1.632 0.731-1.632 1.634s0.731 1.634 1.632 1.634c0.903 0 1.634-0.731 1.634-1.634z" stroke="#000" stroke-width="0.6" fill="none"/></g></g></g><g transform="matrix(1.25 0 0 -1.25 245.45 1438.5)"><g clip-path="url(#ab)"><g transform="translate(571.27 519.29)"><path d="m0 0c0-0.903-0.731-1.634-1.634-1.634-0.901 0-1.632 0.731-1.632 1.634s0.731 1.634 1.632 1.634c0.903 0 1.634-0.731 1.634-1.634" fill="#fff"/></g><g transform="translate(571.27 519.29)"><path d="m0 0c0-0.903-0.731-1.634-1.634-1.634-0.901 0-1.632 0.731-1.632 1.634s0.731 1.634 1.632 1.634c0.903 0 1.634-0.731 1.634-1.634z" stroke="#000" stroke-width="0.6" fill="none"/></g></g></g><g transform="matrix(1.25 0 0 -1.25 393.7 1501.2)"><g clip-path="url(#f)"><g transform="translate(571.27 519.29)"><path d="m0 0c0-0.903-0.731-1.634-1.634-1.634-0.901 0-1.632 0.731-1.632 1.634s0.731 1.634 1.632 1.634c0.903 0 1.634-0.731 1.634-1.634" fill="#fff"/></g><g transform="translate(571.27 519.29)"><path d="m0 0c0-0.903-0.731-1.634-1.634-1.634-0.901 0-1.632 0.731-1.632 1.634s0.731 1.634 1.632 1.634c0.903 0 1.634-0.731 1.634-1.634z" stroke="#000" stroke-width="0.6" fill="none"/></g></g></g><g transform="matrix(1.25 0 0 -1.25 649.13 1501)"><g clip-path="url(#bb)"><g transform="translate(571.27 519.29)"><path d="m0 0c0-0.903-0.731-1.634-1.634-1.634-0.901 0-1.632 0.731-1.632 1.634s0.731 1.634 1.632 1.634c0.903 0 1.634-0.731 1.634-1.634" fill="#fff"/></g><g transform="translate(571.27 519.29)"><path d="m0 0c0-0.903-0.731-1.634-1.634-1.634-0.901 0-1.632 0.731-1.632 1.634s0.731 1.634 1.632 1.634c0.903 0 1.634-0.731 1.634-1.634z" stroke="#000" stroke-width="0.6" fill="none"/></g></g></g><g transform="matrix(1.25 0 0 -1.25 559.7 1225.5)"><g clip-path="url(#i)"><g transform="translate(571.27 519.29)"><path d="m0 0c0-0.903-0.731-1.634-1.634-1.634-0.901 0-1.632 0.731-1.632 1.634s0.731 1.634 1.632 1.634c0.903 0 1.634-0.731 1.634-1.634" fill="#fff"/></g><g transform="translate(571.27 519.29)"><path d="m0 0c0-0.903-0.731-1.634-1.634-1.634-0.901 0-1.632 0.731-1.632 1.634s0.731 1.634 1.632 1.634c0.903 0 1.634-0.731 1.634-1.634z" stroke="#000" stroke-width="0.6" fill="none"/></g></g></g><g transform="matrix(1.25 0 0 -1.25 642.95 1142.5)"><g clip-path="url(#l)"><g transform="translate(571.27 519.29)"><path d="m0 0c0-0.903-0.731-1.634-1.634-1.634-0.901 0-1.632 0.731-1.632 1.634s0.731 1.634 1.632 1.634c0.903 0 1.634-0.731 1.634-1.634" fill="#fff"/></g><g transform="translate(571.27 519.29)"><path d="m0 0c0-0.903-0.731-1.634-1.634-1.634-0.901 0-1.632 0.731-1.632 1.634s0.731 1.634 1.632 1.634c0.903 0 1.634-0.731 1.634-1.634z" stroke="#000" stroke-width="0.6" fill="none"/></g></g></g><g transform="matrix(1.25 0 0 -1.25 371.14 1261.8)"><g clip-path="url(#an)"><g transform="translate(571.27 519.29)"><path d="m0 0c0-0.903-0.731-1.634-1.634-1.634-0.901 0-1.632 0.731-1.632 1.634s0.731 1.634 1.632 1.634c0.903 0 1.634-0.731 1.634-1.634" fill="#fff"/></g><g transform="translate(571.27 519.29)"><path d="m0 0c0-0.903-0.731-1.634-1.634-1.634-0.901 0-1.632 0.731-1.632 1.634s0.731 1.634 1.632 1.634c0.903 0 1.634-0.731 1.634-1.634z" stroke="#000" stroke-width="0.6" fill="none"/></g></g></g><g transform="matrix(1.25 0 0 -1.25 409.07 1261.8)"><g clip-path="url(#bd)"><g transform="translate(571.27 519.29)"><path d="m0 0c0-0.903-0.731-1.634-1.634-1.634-0.901 0-1.632 0.731-1.632 1.634s0.731 1.634 1.632 1.634c0.903 0 1.634-0.731 1.634-1.634" fill="#fff"/></g><g transform="translate(571.27 519.29)"><path d="m0 0c0-0.903-0.731-1.634-1.634-1.634-0.901 0-1.632 0.731-1.632 1.634s0.731 1.634 1.632 1.634c0.903 0 1.634-0.731 1.634-1.634z" stroke="#000" stroke-width="0.6" fill="none"/></g></g></g><g transform="matrix(1.25 0 0 -1.25 342.07 1261.8)"><g clip-path="url(#ak)"><g transform="translate(571.27 519.29)"><path d="m0 0c0-0.903-0.731-1.634-1.634-1.634-0.901 0-1.632 0.731-1.632 1.634s0.731 1.634 1.632 1.634c0.903 0 1.634-0.731 1.634-1.634" fill="#fff"/></g><g transform="translate(571.27 519.29)"><path d="m0 0c0-0.903-0.731-1.634-1.634-1.634-0.901 0-1.632 0.731-1.632 1.634s0.731 1.634 1.632 1.634c0.903 0 1.634-0.731 1.634-1.634z" stroke="#000" stroke-width="0.6" fill="none"/></g></g></g><g transform="matrix(1.25 0 0 -1.25 313.16 1272.5)"><g clip-path="url(#az)"><g transform="translate(571.27 519.29)"><path d="m0 0c0-0.903-0.731-1.634-1.634-1.634-0.901 0-1.632 0.731-1.632 1.634s0.731 1.634 1.632 1.634c0.903 0 1.634-0.731 1.634-1.634" fill="#fff"/></g><g transform="translate(571.27 519.29)"><path d="m0 0c0-0.903-0.731-1.634-1.634-1.634-0.901 0-1.632 0.731-1.632 1.634s0.731 1.634 1.632 1.634c0.903 0 1.634-0.731 1.634-1.634z" stroke="#000" stroke-width="0.6" fill="none"/></g></g></g><g transform="matrix(1.25 0 0 -1.25 233.32 1331.8)"><g clip-path="url(#g)"><g transform="translate(571.27 519.29)"><path d="m0 0c0-0.903-0.731-1.634-1.634-1.634-0.901 0-1.632 0.731-1.632 1.634s0.731 1.634 1.632 1.634c0.903 0 1.634-0.731 1.634-1.634" fill="#fff"/></g><g transform="translate(571.27 519.29)"><path d="m0 0c0-0.903-0.731-1.634-1.634-1.634-0.901 0-1.632 0.731-1.632 1.634s0.731 1.634 1.632 1.634c0.903 0 1.634-0.731 1.634-1.634z" stroke="#000" stroke-width="0.6" fill="none"/></g></g></g><g transform="matrix(1.25 0 0 -1.25 82.029 1274.7)"><g clip-path="url(#as)"><g transform="translate(571.27 519.29)"><path d="m0 0c0-0.903-0.731-1.634-1.634-1.634-0.901 0-1.632 0.731-1.632 1.634s0.731 1.634 1.632 1.634c0.903 0 1.634-0.731 1.634-1.634" fill="#fff"/></g><g transform="translate(571.27 519.29)"><path d="m0 0c0-0.903-0.731-1.634-1.634-1.634-0.901 0-1.632 0.731-1.632 1.634s0.731 1.634 1.632 1.634c0.903 0 1.634-0.731 1.634-1.634z" stroke="#000" stroke-width="0.6" fill="none"/></g></g></g><g transform="matrix(1.25 0 0 -1.25 92.564 1233.4)"><g clip-path="url(#ag)"><g transform="translate(571.27 519.29)"><path d="m0 0c0-0.903-0.731-1.634-1.634-1.634-0.901 0-1.632 0.731-1.632 1.634s0.731 1.634 1.632 1.634c0.903 0 1.634-0.731 1.634-1.634" fill="#fff"/></g><g transform="translate(571.27 519.29)"><path d="m0 0c0-0.903-0.731-1.634-1.634-1.634-0.901 0-1.632 0.731-1.632 1.634s0.731 1.634 1.632 1.634c0.903 0 1.634-0.731 1.634-1.634z" stroke="#000" stroke-width="0.6" fill="none"/></g></g></g><g transform="matrix(1.25 0 0 -1.25 92.564 1211.5)"><g clip-path="url(#am)"><g transform="translate(571.27 519.29)"><path d="m0 0c0-0.903-0.731-1.634-1.634-1.634-0.901 0-1.632 0.731-1.632 1.634s0.731 1.634 1.632 1.634c0.903 0 1.634-0.731 1.634-1.634" fill="#fff"/></g><g transform="translate(571.27 519.29)"><path d="m0 0c0-0.903-0.731-1.634-1.634-1.634-0.901 0-1.632 0.731-1.632 1.634s0.731 1.634 1.632 1.634c0.903 0 1.634-0.731 1.634-1.634z" stroke="#000" stroke-width="0.6" fill="none"/></g></g></g><g transform="matrix(1.25 0 0 -1.25 92.564 1184.7)"><g clip-path="url(#ba)"><g transform="translate(571.27 519.29)"><path d="m0 0c0-0.903-0.731-1.634-1.634-1.634-0.901 0-1.632 0.731-1.632 1.634s0.731 1.634 1.632 1.634c0.903 0 1.634-0.731 1.634-1.634" fill="#fff"/></g><g transform="translate(571.27 519.29)"><path d="m0 0c0-0.903-0.731-1.634-1.634-1.634-0.901 0-1.632 0.731-1.632 1.634s0.731 1.634 1.632 1.634c0.903 0 1.634-0.731 1.634-1.634z" stroke="#000" stroke-width="0.6" fill="none"/></g></g></g><g transform="matrix(1.25 0 0 -1.25 92.564 1161.5)"><g clip-path="url(#al)"><g transform="translate(571.27 519.29)"><path d="m0 0c0-0.903-0.731-1.634-1.634-1.634-0.901 0-1.632 0.731-1.632 1.634s0.731 1.634 1.632 1.634c0.903 0 1.634-0.731 1.634-1.634" fill="#fff"/></g><g transform="translate(571.27 519.29)"><path d="m0 0c0-0.903-0.731-1.634-1.634-1.634-0.901 0-1.632 0.731-1.632 1.634s0.731 1.634 1.632 1.634c0.903 0 1.634-0.731 1.634-1.634z" stroke="#000" stroke-width="0.6" fill="none"/></g></g></g><g transform="matrix(1.25 0 0 -1.25 92.564 1129.5)"><g clip-path="url(#ap)"><g transform="translate(571.27 519.29)"><path d="m0 0c0-0.903-0.731-1.634-1.634-1.634-0.901 0-1.632 0.731-1.632 1.634s0.731 1.634 1.632 1.634c0.903 0 1.634-0.731 1.634-1.634" fill="#fff"/></g><g transform="translate(571.27 519.29)"><path d="m0 0c0-0.903-0.731-1.634-1.634-1.634-0.901 0-1.632 0.731-1.632 1.634s0.731 1.634 1.632 1.634c0.903 0 1.634-0.731 1.634-1.634z" stroke="#000" stroke-width="0.6" fill="none"/></g></g></g><g transform="matrix(1.25 0 0 -1.25 92.564 1105.4)"><g clip-path="url(#ah)"><g transform="translate(571.27 519.29)"><path d="m0 0c0-0.903-0.731-1.634-1.634-1.634-0.901 0-1.632 0.731-1.632 1.634s0.731 1.634 1.632 1.634c0.903 0 1.634-0.731 1.634-1.634" fill="#fff"/></g><g transform="translate(571.27 519.29)"><path d="m0 0c0-0.903-0.731-1.634-1.634-1.634-0.901 0-1.632 0.731-1.632 1.634s0.731 1.634 1.632 1.634c0.903 0 1.634-0.731 1.634-1.634z" stroke="#000" stroke-width="0.6" fill="none"/></g></g></g><g transform="matrix(1.25 0 0 -1.25 92.564 1076.1)"><g clip-path="url(#at)"><g transform="translate(571.27 519.29)"><path d="m0 0c0-0.903-0.731-1.634-1.634-1.634-0.901 0-1.632 0.731-1.632 1.634s0.731 1.634 1.632 1.634c0.903 0 1.634-0.731 1.634-1.634" fill="#fff"/></g><g transform="translate(571.27 519.29)"><path d="m0 0c0-0.903-0.731-1.634-1.634-1.634-0.901 0-1.632 0.731-1.632 1.634s0.731 1.634 1.632 1.634c0.903 0 1.634-0.731 1.634-1.634z" stroke="#000" stroke-width="0.6" fill="none"/></g></g></g><g transform="matrix(1.25 0 0 -1.25 92.564 1054.2)"><g clip-path="url(#af)"><g transform="translate(571.27 519.29)"><path d="m0 0c0-0.903-0.731-1.634-1.634-1.634-0.901 0-1.632 0.731-1.632 1.634s0.731 1.634 1.632 1.634c0.903 0 1.634-0.731 1.634-1.634" fill="#fff"/></g><g transform="translate(571.27 519.29)"><path d="m0 0c0-0.903-0.731-1.634-1.634-1.634-0.901 0-1.632 0.731-1.632 1.634s0.731 1.634 1.632 1.634c0.903 0 1.634-0.731 1.634-1.634z" stroke="#000" stroke-width="0.6" fill="none"/></g></g></g><g transform="matrix(1.25 0 0 -1.25 92.564 1035.4)"><g clip-path="url(#ar)"><g transform="translate(571.27 519.29)"><path d="m0 0c0-0.903-0.731-1.634-1.634-1.634-0.901 0-1.632 0.731-1.632 1.634s0.731 1.634 1.632 1.634c0.903 0 1.634-0.731 1.634-1.634" fill="#fff"/></g><g transform="translate(571.27 519.29)"><path d="m0 0c0-0.903-0.731-1.634-1.634-1.634-0.901 0-1.632 0.731-1.632 1.634s0.731 1.634 1.632 1.634c0.903 0 1.634-0.731 1.634-1.634z" stroke="#000" stroke-width="0.6" fill="none"/></g></g></g><g transform="matrix(1.25 0 0 -1.25 92.564 1011.4)"><g clip-path="url(#ae)"><g transform="translate(571.27 519.29)"><path d="m0 0c0-0.903-0.731-1.634-1.634-1.634-0.901 0-1.632 0.731-1.632 1.634s0.731 1.634 1.632 1.634c0.903 0 1.634-0.731 1.634-1.634" fill="#fff"/></g><g transform="translate(571.27 519.29)"><path d="m0 0c0-0.903-0.731-1.634-1.634-1.634-0.901 0-1.632 0.731-1.632 1.634s0.731 1.634 1.632 1.634c0.903 0 1.634-0.731 1.634-1.634z" stroke="#000" stroke-width="0.6" fill="none"/></g></g></g><g transform="matrix(1.25 0 0 -1.25 114.45 985.85)"><g clip-path="url(#aq)"><g transform="translate(571.27 519.29)"><path d="m0 0c0-0.903-0.731-1.634-1.634-1.634-0.901 0-1.632 0.731-1.632 1.634s0.731 1.634 1.632 1.634c0.903 0 1.634-0.731 1.634-1.634" fill="#fff"/></g><g transform="translate(571.27 519.29)"><path d="m0 0c0-0.903-0.731-1.634-1.634-1.634-0.901 0-1.632 0.731-1.632 1.634s0.731 1.634 1.632 1.634c0.903 0 1.634-0.731 1.634-1.634z" stroke="#000" stroke-width="0.6" fill="none"/></g></g></g><g transform="matrix(1.25 0 0 -1.25 77.522 1434.6)"><g clip-path="url(#h)"><g transform="translate(571.27 519.29)"><path d="m0 0c0-0.903-0.731-1.634-1.634-1.634-0.901 0-1.632 0.731-1.632 1.634s0.731 1.634 1.632 1.634c0.903 0 1.634-0.731 1.634-1.634" fill="#fff"/></g><g transform="translate(571.27 519.29)"><path d="m0 0c0-0.903-0.731-1.634-1.634-1.634-0.901 0-1.632 0.731-1.632 1.634s0.731 1.634 1.632 1.634c0.903 0 1.634-0.731 1.634-1.634z" stroke="#000" stroke-width="0.6" fill="none"/></g></g></g><g stroke-linejoin="round" stroke="#fff" stroke-linecap="round" stroke-width="1.2874" fill="none"><circle cx="740.66" cy="657.37" r="1.5963"/><circle cx="736.32" cy="657.37" r="1.5963"/><circle cx="732.14" cy="657.37" r="1.5963"/></g><path d="m741.34 655.52c0.41277-0.0582 0.80942 3.7228 0.41985 3.8007l1.1711-0.14363 0.88389-1.812-0.61872-1.6462z" fill-rule="evenodd" fill="#fff"/><g fill="none" transform="matrix(1.25 0 0 -1.25 753.13 657.31)"><path d="m-7.46 0c0-0.9-0.73-1.63-1.631-1.63h-8.7591c-0.9 0-1.63 0.73-1.63 1.63s0.73 1.63 1.63 1.63h8.7591c0.901 0 1.631-0.73 1.631-1.63z" stroke="#000" stroke-width="0.65" fill="none"/></g><g fill="none"><circle stroke-linejoin="round" cx="736.33" stroke-linecap="round" stroke="#fff" cy="626.65" r="1.5963" stroke-width="1.2874"/><circle stroke-linejoin="round" cx="732.12" stroke-linecap="round" stroke="#fff" cy="626.65" r="1.5963" stroke-width="1.2874"/><g transform="matrix(1.25 0 0 -1.25 753.59 626.61)"><path d="m-11.235 0c0-0.9-0.73-1.63-1.631-1.63h-4.9841c-0.9 0-1.63 0.73-1.63 1.63s0.73 1.63 1.63 1.63h4.9841c0.901 0 1.631-0.73 1.631-1.63z" stroke="#000" stroke-width="0.65" fill="none"/></g></g><g transform="translate(0,-32)" fill="none"><circle stroke-linejoin="round" stroke-width="1.2874" stroke-linecap="round" stroke="#fff" cy="626.65" cx="736.33" r="1.5963"/><circle stroke-linejoin="round" stroke-width="1.2874" stroke-linecap="round" stroke="#fff" cy="626.65" cx="732.12" r="1.5963"/><g transform="matrix(1.25 0 0 -1.25 753.59 626.61)"><path d="m-11.235 0c0-0.9-0.73-1.63-1.631-1.63h-4.9841c-0.9 0-1.63 0.73-1.63 1.63s0.73 1.63 1.63 1.63h4.9841c0.901 0 1.631-0.73 1.631-1.63z" stroke="#000" stroke-width="0.65" fill="none"/></g></g><g fill="none" transform="translate(0,-58)"><circle stroke-linejoin="round" cx="736.33" stroke-linecap="round" stroke="#fff" cy="626.65" r="1.5963" stroke-width="1.2874"/><circle stroke-linejoin="round" cx="732.12" stroke-linecap="round" stroke="#fff" cy="626.65" r="1.5963" stroke-width="1.2874"/><g transform="matrix(1.25 0 0 -1.25 753.59 626.61)"><path d="m-11.235 0c0-0.9-0.73-1.63-1.631-1.63h-4.9841c-0.9 0-1.63 0.73-1.63 1.63s0.73 1.63 1.63 1.63h4.9841c0.901 0 1.631-0.73 1.631-1.63z" stroke="#000" stroke-width="0.65" fill="none"/></g></g><g transform="translate(0,-88)" fill="none"><circle stroke-linejoin="round" stroke-width="1.2874" stroke-linecap="round" stroke="#fff" cy="626.65" cx="736.33" r="1.5963"/><circle stroke-linejoin="round" stroke-width="1.2874" stroke-linecap="round" stroke="#fff" cy="626.65" cx="732.12" r="1.5963"/><g transform="matrix(1.25 0 0 -1.25 753.59 626.61)"><path d="m-11.235 0c0-0.9-0.73-1.63-1.631-1.63h-4.9841c-0.9 0-1.63 0.73-1.63 1.63s0.73 1.63 1.63 1.63h4.9841c0.901 0 1.631-0.73 1.631-1.63z" stroke="#000" stroke-width="0.65" fill="none"/></g></g><g fill="none" transform="translate(0,-120)"><circle stroke-linejoin="round" cx="736.33" stroke-linecap="round" stroke="#fff" cy="626.65" r="1.5963" stroke-width="1.2874"/><circle stroke-linejoin="round" cx="732.12" stroke-linecap="round" stroke="#fff" cy="626.65" r="1.5963" stroke-width="1.2874"/><g transform="matrix(1.25 0 0 -1.25 753.59 626.61)"><path d="m-11.235 0c0-0.9-0.73-1.63-1.631-1.63h-4.9841c-0.9 0-1.63 0.73-1.63 1.63s0.73 1.63 1.63 1.63h4.9841c0.901 0 1.631-0.73 1.631-1.63z" stroke="#000" stroke-width="0.65" fill="none"/></g></g><path stroke-linejoin="round" d="m298.46 185.89 116.47 116.47v146.93l0.0838 232.78 89.484 89.427m2.9619 2.96 48.568 48.537 145.82-0.0613 22.135-22.135v-87.087" stroke="#fff" stroke-dasharray="12.8, 12.8" stroke-width="1.6" fill="none"/><g fill="none" transform="matrix(.70711 -.70711 .70711 .70711 -457.86 850.73)"><circle stroke-linejoin="round" cx="736.33" stroke-linecap="round" stroke="#fff" cy="626.65" r="1.5963" stroke-width="1.2874"/><circle stroke-linejoin="round" cx="732.12" stroke-linecap="round" stroke="#fff" cy="626.65" r="1.5963" stroke-width="1.2874"/><g transform="matrix(1.25 0 0 -1.25 753.59 626.61)"><path d="m-11.235 0c0-0.9-0.73-1.63-1.631-1.63h-4.9841c-0.9 0-1.63 0.73-1.63 1.63s0.73 1.63 1.63 1.63h4.9841c0.901 0 1.631-0.73 1.631-1.63z" stroke="#000" stroke-width="0.65" fill="none"/></g></g><path stroke-linejoin="round" d="m31.201 755.49c159.95-0.021 291.36 0.0692 450.92-0.29662l71.954 71.791h149.33l24.688-24.688v-88.565" stroke="#fff" stroke-dasharray="12.8, 12.8" stroke-width="1.6" fill="none"/><g fill="none"><g stroke-linejoin="round" stroke="#fff" stroke-linecap="round" stroke-width="1.2874"><circle cx="736.31" cy="711.67" r="1.5963"/><circle cx="740.57" cy="711.67" r="1.5963"/><circle cx="744.78" cy="711.67" r="1.5963"/><circle cx="748.91" cy="711.67" r="1.5963"/><circle cx="732.19" cy="711.67" r="1.5963"/><circle cx="728.06" cy="711.67" r="1.5963"/><circle cx="724" cy="711.67" r="1.5963"/></g><g transform="matrix(1.25 0 0 -1.25 748.85 711.65)"><path d="m2.5809 0c0-0.9-0.73-1.63-1.631-1.63h-21.852c-0.9 0-1.63 0.73-1.63 1.63s0.73 1.63 1.63 1.63h21.852c0.9009 0 1.6309-0.73 1.6309-1.63z" stroke="#000" stroke-width="0.65" fill="none"/></g></g><g stroke-linejoin="round" stroke="#fff" stroke-linecap="round" stroke-width="1.2874"><circle cy="761.67" cx="736.31" r="1.5963" fill="none"/><circle cy="761.67" cx="740.57" r="1.5963" fill="none"/><circle cy="761.67" cx="744.78" r="1.5963" fill="#fff"/><circle cy="761.67" cx="748.91" r="1.5963" fill="#fff"/><circle cy="761.67" cx="732.19" r="1.5963" fill="none"/><circle cy="761.67" cx="728.06" r="1.5963" fill="#fff"/><circle cy="761.67" cx="724" r="1.5963" fill="#fff"/></g><g fill="none" transform="matrix(1.25 0 0 -1.25 748.85 761.65)"><path d="m2.5809 0c0-0.9-0.73-1.63-1.631-1.63h-21.852c-0.9 0-1.63 0.73-1.63 1.63s0.73 1.63 1.63 1.63h21.852c0.9009 0 1.6309-0.73 1.6309-1.63z" stroke="#000" stroke-width="0.65" fill="none"/></g><g transform="matrix(1.25 0 0 -1.25 -296.98 1045.8)"><g clip-path="url(#j)"><g transform="translate(571.27 519.29)"><path d="m0 0c0-0.903-0.731-1.634-1.634-1.634-0.901 0-1.632 0.731-1.632 1.634s0.731 1.634 1.632 1.634c0.903 0 1.634-0.731 1.634-1.634" fill="#fff"/></g><g transform="translate(571.27 519.29)"><path d="m0 0c0-0.903-0.731-1.634-1.634-1.634-0.901 0-1.632 0.731-1.632 1.634s0.731 1.634 1.632 1.634c0.903 0 1.634-0.731 1.634-1.634z" stroke="#000" stroke-width="0.6" fill="none"/></g></g></g><g transform="matrix(1.25 0 0 -1.25 -297.05 1186.2)"><g clip-path="url(#r)"><g transform="translate(571.27 519.29)"><path d="m0 0c0-0.903-0.731-1.634-1.634-1.634-0.901 0-1.632 0.731-1.632 1.634s0.731 1.634 1.632 1.634c0.903 0 1.634-0.731 1.634-1.634" fill="#fff"/></g><g transform="translate(571.27 519.29)"><path d="m0 0c0-0.903-0.731-1.634-1.634-1.634-0.901 0-1.632 0.731-1.632 1.634s0.731 1.634 1.632 1.634c0.903 0 1.634-0.731 1.634-1.634z" stroke="#000" stroke-width="0.6" fill="none"/></g></g></g><g transform="matrix(1.25 0 0 -1.25 -410.3 1405)"><g clip-path="url(#ai)"><g transform="translate(571.27 519.29)"><path d="m0 0c0-0.903-0.731-1.634-1.634-1.634-0.901 0-1.632 0.731-1.632 1.634s0.731 1.634 1.632 1.634c0.903 0 1.634-0.731 1.634-1.634" fill="#fff"/></g><g transform="translate(571.27 519.29)"><path d="m0 0c0-0.903-0.731-1.634-1.634-1.634-0.901 0-1.632 0.731-1.632 1.634s0.731 1.634 1.632 1.634c0.903 0 1.634-0.731 1.634-1.634z" stroke="#000" stroke-width="0.6" fill="none"/></g></g></g><text style="word-spacing:0px;letter-spacing:0px" xml:space="preserve" font-size="15px" line-height="125%" y="763.99731" x="288.53235" font-family="&apos;Lucida Grande&apos;" fill="#000000"><tspan y="763.99731" x="288.53235" font-size="5px">Kiel-Russee</tspan></text>
<g transform="matrix(1.25 0 0 -1.25 155.21 1407.1)"><g clip-path="url(#p)"><g transform="translate(571.27 519.29)"><path d="m0 0c0-0.903-0.731-1.634-1.634-1.634-0.901 0-1.632 0.731-1.632 1.634s0.731 1.634 1.632 1.634c0.903 0 1.634-0.731 1.634-1.634" fill="#fff"/></g><g transform="translate(571.27 519.29)"><path d="m0 0c0-0.903-0.731-1.634-1.634-1.634-0.901 0-1.632 0.731-1.632 1.634s0.731 1.634 1.632 1.634c0.903 0 1.634-0.731 1.634-1.634z" stroke="#000" stroke-width="0.6" fill="none"/></g></g></g><g transform="matrix(1.25 0 0 -1.25 196.32 1388.5)"><g clip-path="url(#n)"><g transform="translate(571.27 519.29)"><path d="m0 0c0-0.903-0.731-1.634-1.634-1.634-0.901 0-1.632 0.731-1.632 1.634s0.731 1.634 1.632 1.634c0.903 0 1.634-0.731 1.634-1.634" fill="#fff"/></g><g transform="translate(571.27 519.29)"><path d="m0 0c0-0.903-0.731-1.634-1.634-1.634-0.901 0-1.632 0.731-1.632 1.634s0.731 1.634 1.632 1.634c0.903 0 1.634-0.731 1.634-1.634z" stroke="#000" stroke-width="0.6" fill="none"/></g></g></g><g transform="matrix(1.25 0 0 -1.25 196.4 1353.2)"><g clip-path="url(#o)"><g transform="translate(571.27 519.29)"><path d="m0 0c0-0.903-0.731-1.634-1.634-1.634-0.901 0-1.632 0.731-1.632 1.634s0.731 1.634 1.632 1.634c0.903 0 1.634-0.731 1.634-1.634" fill="#fff"/></g><g transform="translate(571.27 519.29)"><path d="m0 0c0-0.903-0.731-1.634-1.634-1.634-0.901 0-1.632 0.731-1.632 1.634s0.731 1.634 1.632 1.634c0.903 0 1.634-0.731 1.634-1.634z" stroke="#000" stroke-width="0.6" fill="none"/></g></g></g><rect ry="4.2402" height="8.4804" width="15.25" y="879.61" x="95.625" fill="#303f9f"/><text style="word-spacing:0px;letter-spacing:0px;text-anchor:middle;text-align:center" xml:space="preserve" font-size="6.25px" line-height="125%" y="886.27405" x="103.5" font-family="&apos;Info Disp Semibold&apos;" fill="#ffffff"><tspan y="886.27405" x="103.5">S1</tspan></text>
<g transform="translate(54,848)"><rect ry="4.2402" height="8.4804" width="15.25" y="45.613" x="41.625" fill="#303f9f"/><text style="word-spacing:0px;letter-spacing:0px;text-anchor:middle;text-align:center" xml:space="preserve" font-size="7.5px" line-height="125%" y="52.612549" x="49.5" font-family="&apos;Info Disp Semibold&apos;" fill="#ffffff"><tspan y="52.612549" x="49.5">S1</tspan></text>
</g><g><rect ry="4.2402" height="8.4804" width="15.25" y="893.61" x="95.625" fill="#d50000"/><text style="word-spacing:0px;letter-spacing:0px;text-anchor:middle;text-align:center" xml:space="preserve" font-size="6.25px" line-height="125%" y="900.27405" x="103.5" font-family="&apos;Info Disp Semibold&apos;" fill="#ffffff"><tspan y="900.27405" x="103.5">S2</tspan></text>
<rect ry="4.2402" height="8.4804" width="15.25" y="907.61" x="95.625" fill="#f9b000"/><text style="word-spacing:0px;letter-spacing:0px;text-anchor:middle;text-align:center" xml:space="preserve" font-size="6.25px" line-height="125%" y="914.27405" x="103.5" font-family="&apos;Info Disp Semibold&apos;" fill="#ffffff"><tspan y="914.27405" x="103.5">S4</tspan></text>
</g><rect fill-opacity=".94118" rx="0" ry="0" height="8.4804" width="18" y="921.61" x="95.625" fill="#7ab55f"/><text style="word-spacing:0px;letter-spacing:0px;text-anchor:middle;text-align:center" xml:space="preserve" font-size="6.25px" line-height="125%" y="928.36255" x="104.875" font-family="&apos;Info Disp Semibold&apos;" fill="#000000"><tspan y="928.36255" x="104.875">RB72</tspan></text>
<rect fill-opacity=".94118" rx="0" ry="0" height="8.4804" width="18" y="921.61" x="115.62" fill="#017d4f"/><text style="word-spacing:0px;letter-spacing:0px;text-anchor:middle;text-align:center" xml:space="preserve" font-size="6.25px" line-height="125%" y="928.27405" x="124.875" font-family="&apos;Info Disp Semibold&apos;" fill="#ffffff"><tspan y="928.27405" x="124.875">RB73</tspan></text>
<rect fill-opacity=".94118" rx="0" ry="0" height="8.4804" width="18" y="935.61" x="95.625" fill="#004f9f"/><text style="word-spacing:0px;letter-spacing:0px;text-anchor:middle;text-align:center" xml:space="preserve" font-size="6.25px" line-height="125%" y="942.36255" x="104.875" font-family="&apos;Info Disp Semibold&apos;" fill="#ffffff"><tspan y="942.36255" x="104.875">RB74</tspan></text>
<rect fill-opacity=".94118" rx="0" ry="0" height="8.4804" width="18" y="935.61" x="115.62" fill="#9f562f"/><text style="word-spacing:0px;letter-spacing:0px;text-anchor:middle;text-align:center" xml:space="preserve" font-size="6.25px" line-height="125%" y="942.27405" x="124.875" font-family="&apos;Info Disp Semibold&apos;" fill="#ffffff"><tspan y="942.27405" x="124.875">RB75</tspan></text>
<rect fill-opacity=".94118" rx="0" ry="0" height="8.4804" width="18" y="949.61" x="95.625" fill="#06387f"/><text style="word-spacing:0px;letter-spacing:0px;text-anchor:middle;text-align:center" xml:space="preserve" font-size="6.25px" line-height="125%" y="956.27405" x="104.875" font-family="&apos;Info Disp Semibold&apos;" fill="#ffffff"><tspan y="956.27405" x="104.875">RB83</tspan></text>
<rect fill-opacity=".94118" rx="0" ry="0" height="8.4804" width="18" y="949.61" x="115.62" fill="#c782bf"/><text style="word-spacing:0px;letter-spacing:0px;text-anchor:middle;text-align:center" xml:space="preserve" font-size="6.25px" line-height="125%" y="956.27405" x="124.875" font-family="&apos;Info Disp Semibold&apos;" fill="#000000"><tspan y="956.27405" x="124.875">RB84</tspan></text>
<rect fill-opacity=".94118" rx="0" ry="0" height="8.4804" width="18" y="963.61" x="95.625" fill="#fed40f"/><text style="word-spacing:0px;letter-spacing:0px;text-anchor:middle;text-align:center" xml:space="preserve" font-size="6.25px" line-height="125%" y="970.27405" x="104.875" font-family="&apos;Info Disp Semibold&apos;" fill="#000000"><tspan y="970.27405" x="104.875">RB76</tspan></text><g fill="none"><g>
<rect stroke-linejoin="round" height="156.01" width="206.39" stroke="#000" y="850.92" x="51.645" stroke-width=".70491"/><g stroke-width="2.3361"><path d="m67.081 884.04h24" stroke="#303f9f"/><path d="m67.081 898.04h24" stroke="#d50000"/><path d="m67.081 912.04h24" stroke="#f9b000"/><path d="m67.081 926.04h24" stroke="#558b2f"/><path d="m67.081 940.04h24" stroke="#4a148c"/><path d="m67.081 954.04h24" stroke="#810888"/><path d="m67.081 968.04h24" stroke="#0277bd"/></g></g><g stroke="#fff" stroke-dasharray="9.60000014, 9.60000014" stroke-width="1.6"><path d="m67.081 968.04h24"/><path d="m67.081 954.04h24"/><path d="m67.081 940.04h24"/><path d="m67.081 926.04h24"/></g></g><g font-family="&apos;Lucida Grande&apos;" fill="#000000"><g font-size="8.75px"><text style="word-spacing:0px;letter-spacing:0px" xml:space="preserve" line-height="125%" y="887.36255" x="115"><tspan font-size="8.75px" line-height="125%" y="887.36255" x="115" font-family="&apos;Lucida Grande&apos;">Wik - Schulensee</tspan></text>
<text style="word-spacing:0px;letter-spacing:0px" xml:space="preserve" line-height="125%" y="901.36255" x="115"><tspan font-size="8.75px" line-height="125%" y="901.36255" x="115" font-family="&apos;Lucida Grande&apos;">Uni - Hbf</tspan></text>
<text style="word-spacing:0px;letter-spacing:0px" xml:space="preserve" line-height="125%" y="915.36255" x="115"><tspan font-size="8.75px" line-height="125%" y="915.36255" x="115" font-family="&apos;Lucida Grande&apos;">Wik - Wellingdorf</tspan></text>
<text style="word-spacing:0px;letter-spacing:0px" xml:space="preserve" line-height="125%" y="929.36255" x="137"><tspan font-size="8.75px" line-height="125%" y="929.36255" x="137" font-family="&apos;Lucida Grande&apos;">Eckernfrde</tspan></text>
<text style="word-spacing:0px;letter-spacing:0px" xml:space="preserve" line-height="125%" y="943.36255" x="137"><tspan font-size="8.75px" line-height="125%" y="943.36255" x="137" font-family="&apos;Lucida Grande&apos;">Rendsburg</tspan></text>
<text style="word-spacing:0px;letter-spacing:0px" xml:space="preserve" line-height="125%" y="957.36255" x="137"><tspan font-size="8.75px" line-height="125%" y="957.36255" x="137" font-family="&apos;Lucida Grande&apos;">Lbeck</tspan></text>
<text style="word-spacing:0px;letter-spacing:0px" xml:space="preserve" line-height="125%" y="971.36255" x="117"><tspan font-size="8.75px" line-height="125%" y="971.36255" x="117" font-family="&apos;Lucida Grande&apos;">Schnberg</tspan></text>
</g><text style="word-spacing:0px;letter-spacing:0px" xml:space="preserve" font-size="15px" line-height="125%" y="869.73755" x="66"><tspan y="869.73755" x="66" font-size="12.5px">Legende</tspan></text>
</g><path d="m67.081 982.04h24" stroke="#db4b4b" stroke-width="2.3361" fill="none"/><g transform="matrix(1.25 0 0 -1.25 -633.14 1631.4)"><g clip-path="url(#y)"><g transform="translate(571.27 519.29)"><path d="m0 0c0-0.903-0.731-1.634-1.634-1.634-0.901 0-1.632 0.731-1.632 1.634s0.731 1.634 1.632 1.634c0.903 0 1.634-0.731 1.634-1.634" fill="#fff"/></g><g transform="translate(571.27 519.29)"><path d="m0 0c0-0.903-0.731-1.634-1.634-1.634-0.901 0-1.632 0.731-1.632 1.634s0.731 1.634 1.632 1.634c0.903 0 1.634-0.731 1.634-1.634z" stroke="#000" stroke-width="0.6" fill="none"/></g></g></g><text style="word-spacing:0px;letter-spacing:0px" xml:space="preserve" font-size="8.75px" line-height="125%" y="985.36255" x="95" font-family="&apos;Lucida Grande&apos;" fill="#000000"><tspan font-size="8.75px" line-height="125%" y="985.36255" x="95" font-family="&apos;Lucida Grande&apos;">Haltestelle</tspan></text>
<path d="m67.081 993.54h24" stroke="#db4b4b" stroke-width="2.3361" fill="none"/><path d="m67.081 997.54h24" stroke="#95db4b" stroke-width="2.3361" fill="none"/><g transform="matrix(0 1 -1 0 705.56 261.47)"><circle stroke-linejoin="round" cx="736.33" stroke-linecap="round" stroke="#fff" cy="626.65" r="1.5963" stroke-width="1.2874" fill="#fff"/><circle stroke-linejoin="round" cx="732.12" stroke-linecap="round" stroke="#fff" cy="626.65" r="1.5963" stroke-width="1.2874" fill="none"/><g fill="none" transform="matrix(1.25 0 0 -1.25 753.59 626.61)"><path d="m-11.235 0c0-0.9-0.73-1.63-1.631-1.63h-4.9841c-0.9 0-1.63 0.73-1.63 1.63s0.73 1.63 1.63 1.63h4.9841c0.901 0 1.631-0.73 1.631-1.63z" stroke="#000" stroke-width="0.65" fill="none"/></g></g><g font-family="&apos;Lucida Grande&apos;" fill="#000000"><text style="word-spacing:0px;letter-spacing:0px" xml:space="preserve" font-size="8.75px" line-height="125%" y="999.36255" x="95"><tspan font-size="8.75px" line-height="125%" y="999.36255" x="95" font-family="&apos;Lucida Grande&apos;">Multi-Haltestelle mit Teilhalt</tspan></text>
<text style="word-spacing:0px;letter-spacing:0px" xml:space="preserve" font-size="5px" line-height="125%" y="712.98755" x="697.875"><tspan y="712.98755" x="697.875" font-size="5px">Kiel Hbf</tspan></text>
<text style="word-spacing:0px;letter-spacing:0px" xml:space="preserve" font-size="5px" line-height="125%" y="658.86255" x="681.625"><tspan y="658.86255" x="681.625" font-size="5px">Andreas-Gayk-Str.</tspan></text>
<text style="word-spacing:0px;letter-spacing:0px" xml:space="preserve" font-size="15px" line-height="125%" y="628.36255" x="691.75"><tspan y="628.36255" x="691.75" font-size="5px">Holstenbrcke</tspan></text>
<text style="word-spacing:0px;letter-spacing:0px" xml:space="preserve" font-size="15px" line-height="125%" y="645.48004" x="743.18854"><tspan y="645.48004" x="743.18854" font-size="5px">Bootshafen</tspan></text>
<text style="word-spacing:0px;letter-spacing:0px" xml:space="preserve" font-size="5px" line-height="89.99999762%" y="620.23828" x="766.31439"><tspan line-height="89.99999762%" y="620.23828" x="766.31439">Seegarten,</tspan><tspan line-height="89.99999762%" y="624.73828" x="766.31439">Ostseekai</tspan></text>
<text style="word-spacing:0px;letter-spacing:0px" xml:space="preserve" font-size="15px" line-height="125%" y="596.05426" x="687.92181"><tspan y="596.05426" x="687.92181" font-size="5px">Lorentzendamm</tspan></text>
<text style="word-spacing:0px;letter-spacing:0px" xml:space="preserve" font-size="15px" line-height="125%" y="570.06818" x="693.75543"><tspan y="570.06818" x="693.75543" font-size="5px">Dreiecksplatz</tspan></text>
<text style="word-spacing:0px;letter-spacing:0px" xml:space="preserve" font-size="15px" line-height="125%" y="540.19287" x="682.61847"><tspan y="540.19287" x="682.61847" font-size="5px">Schauenburgerstr.</tspan></text>
<text style="word-spacing:0px;letter-spacing:0px" xml:space="preserve" font-size="5px" line-height="125%" y="505.01434" x="689.86633"><tspan y="505.01434" x="689.86633">Waitzstr./</tspan><tspan y="511.26434" x="689.86633">Holtenauer Str.</tspan></text>
<text style="word-spacing:0px;letter-spacing:0px" xml:space="preserve" font-size="15px" line-height="125%" y="478.4978" x="694.63934"><tspan y="478.4978" x="694.63934" font-size="5px">Schauspielhaus</tspan></text>
<text style="word-spacing:0px;letter-spacing:0px" xml:space="preserve" font-size="15px" line-height="125%" y="458.4978" x="694.63934"><tspan y="458.4978" x="694.63934" font-size="5px">Hardenbergstr.</tspan></text>
<text style="word-spacing:0px;letter-spacing:0px" xml:space="preserve" font-size="15px" line-height="125%" y="438.59567" x="707.52234"><tspan y="438.59567" x="707.52234" font-size="5px">Belvedere</tspan></text>
<text style="word-spacing:0px;letter-spacing:0px" xml:space="preserve" font-size="15px" line-height="125%" y="421.62509" x="702.39581"><tspan y="421.62509" x="702.39581" font-size="5px">Hanssenstr.</tspan></text>
<text style="word-spacing:0px;letter-spacing:0px" xml:space="preserve" font-size="15px" line-height="125%" y="404.30756" x="701.66583"><tspan y="404.30756" x="701.66583" font-size="5px">Schulredder</tspan></text>
<text style="word-spacing:0px;letter-spacing:0px" xml:space="preserve" font-size="15px" line-height="125%" y="388.0441" x="699.19098"><tspan y="388.0441" x="699.19098" font-size="5px">Elendsredder</tspan></text>
<text style="word-spacing:0px;letter-spacing:0px" xml:space="preserve" font-size="15px" line-height="125%" y="364.35602" x="708.91364"><tspan y="364.35602" x="708.91364" font-size="5px">Knorrstr.</tspan></text>
<text style="word-spacing:0px;letter-spacing:0px" xml:space="preserve" font-size="15px" line-height="125%" y="337.26367" x="713.22021"><tspan y="337.26367" x="713.22021" font-size="5px">Auberg</tspan></text>
<text style="word-spacing:0px;letter-spacing:0px" xml:space="preserve" font-size="15px" line-height="125%" y="310.01367" x="705.84521"><tspan y="310.01367" x="705.84521" font-size="5px">Wik, Kanal</tspan></text>
<text style="word-spacing:0px;letter-spacing:0px" xml:space="preserve" font-size="15px" line-height="125%" y="763.38867" x="683.59521"><tspan y="763.38867" x="683.59521" font-size="5px">Hummelwiese</tspan></text>
<text style="word-spacing:0px;letter-spacing:0px" xml:space="preserve" font-size="15px" line-height="125%" y="818.40692" x="657.02972"><tspan y="818.40692" x="657.02972" font-size="5px">Rondeel</tspan></text>
<text style="word-spacing:0px;letter-spacing:0px" xml:space="preserve" font-size="5px" line-height="125%" y="841.12244" x="663.10156"><tspan y="841.12244" x="663.10156">Krusenrotter</tspan><tspan y="847.37244" x="663.10156">Weg</tspan></text>
<text style="word-spacing:0px;letter-spacing:0px" xml:space="preserve" font-size="15px" line-height="125%" y="856.68048" x="648.51233"><tspan y="856.68048" x="648.51233" font-size="5px">Waldwiese</tspan></text>
<text style="word-spacing:0px;letter-spacing:0px" xml:space="preserve" font-size="15px" line-height="125%" y="867.74023" x="636.5199"><tspan y="867.74023" x="636.5199" font-size="5px">Diesterwegstr.</tspan></text>
<text style="word-spacing:0px;letter-spacing:0px" xml:space="preserve" font-size="15px" line-height="125%" y="891.85095" x="613.05414"><tspan y="891.85095" x="613.05414" font-size="5px">Wulfsbrook</tspan></text>
<text style="word-spacing:0px;letter-spacing:0px" xml:space="preserve" font-size="5px" line-height="125%" y="901.01367" x="543.09521"><tspan y="901.01367" x="543.09521">Petersburger</tspan><tspan y="907.26367" x="543.09521">Weg</tspan></text>
<text style="word-spacing:0px;letter-spacing:0px" xml:space="preserve" font-size="5px" line-height="125%" y="923.24188" x="517.41534"><tspan y="923.24188" x="517.41534">Hamburger</tspan><tspan y="929.49188" x="517.41534">Baum</tspan></text>
<text style="word-spacing:0px;letter-spacing:0px" xml:space="preserve" font-size="15px" line-height="125%" y="941.02777" x="479.8197"><tspan y="941.02777" x="479.8197" font-size="5px">Schulensee</tspan></text>
<text style="word-spacing:0px;letter-spacing:0px" xml:space="preserve" font-size="15px" line-height="125%" y="794.10016" x="960.11334"><tspan y="794.10016" x="960.11334" font-size="5px">Kiel-Schulen am Langsee</tspan></text>
<text style="word-spacing:0px;letter-spacing:0px" xml:space="preserve" font-size="5px" line-height="125%" y="763.341" x="1022.6923"><tspan y="763.341" x="1022.6923">Kiel-Ellerbek</tspan><tspan y="769.591" x="1022.6923">Stadtrat-Hahn-Park</tspan></text>
<text style="word-spacing:0px;letter-spacing:0px" xml:space="preserve" font-size="15px" line-height="125%" y="580.86456" x="1275.5259"><tspan y="580.86456" x="1275.5259" font-size="5px">Oppendorf</tspan></text>
<text style="word-spacing:0px;letter-spacing:0px" xml:space="preserve" font-size="15px" line-height="125%" y="497.63867" x="1358.4702"><tspan y="497.63867" x="1358.4702" font-size="5px">Schnkirchen</tspan></text>
<text style="word-spacing:0px;letter-spacing:0px" xml:space="preserve" font-size="5px" line-height="125%" y="768.17462" x="510.6738"><tspan y="768.17462" x="510.6738">Kiel-Hassee</tspan><tspan y="774.42462" x="510.6738">CITTI-Park</tspan></text>
<text style="word-spacing:0px;letter-spacing:0px" xml:space="preserve" font-size="15px" line-height="125%" y="503.50201" x="655.29437"><tspan y="503.50201" x="655.29437" font-size="5px">Samwerstr.</tspan></text>
<text style="word-spacing:0px;letter-spacing:0px" xml:space="preserve" font-size="15px" line-height="125%" y="472.90002" x="640.0191"><tspan y="472.90002" x="640.0191" font-size="5px">Universitt</tspan></text>
<text style="word-spacing:0px;letter-spacing:0px" xml:space="preserve" font-size="15px" line-height="125%" y="453.17163" x="620.29883"><tspan y="453.17163" x="620.29883" font-size="5px">I.P.N.</tspan></text>
<text style="word-spacing:0px;letter-spacing:0px" xml:space="preserve" font-size="15px" line-height="125%" y="434.25653" x="601.82568"><tspan y="434.25653" x="601.82568" font-size="5px">Uni-Sportsttten</tspan></text>
<text style="word-spacing:0px;letter-spacing:0px" xml:space="preserve" font-size="15px" line-height="125%" y="419.84921" x="587.06482"><tspan y="419.84921" x="587.06482" font-size="5px">Universitt</tspan></text>
<text style="word-spacing:0px;letter-spacing:0px" xml:space="preserve" font-size="15px" line-height="125%" y="538.62177" x="419.10553"><tspan y="538.62177" x="419.10553" font-size="5px">Kronshagen</tspan></text>
<text style="word-spacing:0px;letter-spacing:0px" xml:space="preserve" font-size="15px" line-height="125%" y="398.60309" x="419.23285"><tspan y="398.60309" x="419.23285" font-size="5px">Suchsdorf</tspan></text>
<text style="word-spacing:0px;letter-spacing:0px" xml:space="preserve" font-size="15px" line-height="125%" y="859.94293" x="1082.2598"><tspan y="859.94293" x="1082.2598" font-size="5px">Kiel-Elmschenhagen</tspan></text>
<text style="word-spacing:0px;letter-spacing:0px" xml:space="preserve" font-size="15px" line-height="125%" y="859.23584" x="1351.9768"><tspan y="859.23584" x="1351.9768" font-size="5px">Raisdorf</tspan></text>
<text style="word-spacing:0px;letter-spacing:0px" xml:space="preserve" font-size="15px" line-height="125%" y="763.31232" x="91.139084"><tspan y="763.31232" x="91.139084" font-size="5px">Melsdorf</tspan></text>
<text style="word-spacing:0px;letter-spacing:0px" xml:space="preserve" font-size="15px" line-height="125%" y="585.76227" x="768.83466"><tspan y="585.76227" x="768.83466" font-size="5px">Schlogarten</tspan></text>
<text style="word-spacing:0px;letter-spacing:0px" xml:space="preserve" font-size="15px" line-height="125%" y="563.9303" x="772.01666"><tspan y="563.9303" x="772.01666" font-size="5px">Hospitalstr.</tspan></text>
<text style="word-spacing:0px;letter-spacing:0px" xml:space="preserve" font-size="15px" line-height="125%" y="537.32544" x="769.45343"><tspan y="537.32544" x="769.45343" font-size="5px">Uni-Kliniken</tspan></text>
<text style="word-spacing:0px;letter-spacing:0px" xml:space="preserve" font-size="5px" line-height="125%" y="511.25089" x="779.17609"><tspan y="511.25089" x="779.17609">Feldstr./</tspan><tspan y="517.50085" x="779.17609">Waitzstr.</tspan></text>
<text style="word-spacing:0px;letter-spacing:0px" xml:space="preserve" font-size="15px" line-height="125%" y="481.90594" x="772.37018"><tspan y="481.90594" x="772.37018" font-size="5px">Wrangelstr.</tspan></text>
<text style="word-spacing:0px;letter-spacing:0px" xml:space="preserve" font-size="15px" line-height="125%" y="458.04111" x="777.87335"><tspan y="458.04111" x="777.87335" font-size="5px">Yorckstr.</tspan></text>
<text style="word-spacing:0px;letter-spacing:0px" xml:space="preserve" font-size="15px" line-height="125%" y="428.38162" x="757.961"><tspan y="428.38162" x="757.961" font-size="5px">Dvelsbeker Weg</tspan></text>
<text style="word-spacing:0px;letter-spacing:0px" xml:space="preserve" font-size="15px" line-height="125%" y="406.7265" x="771.39606"><tspan y="406.7265" x="771.39606" font-size="5px">Homannstr.</tspan></text>
<text style="word-spacing:0px;letter-spacing:0px" xml:space="preserve" font-size="15px" line-height="125%" y="387.98816" x="770.24701"><tspan y="387.98816" x="770.24701" font-size="5px">Mercatorstr.</tspan></text>
<text style="word-spacing:0px;letter-spacing:0px" xml:space="preserve" font-size="15px" line-height="125%" y="363.85812" x="769.27472"><tspan y="363.85812" x="769.27472" font-size="5px">Petruskirche</tspan></text>
<text style="word-spacing:0px;letter-spacing:0px" xml:space="preserve" font-size="15px" line-height="125%" y="338.3139" x="785.62659"><tspan y="338.3139" x="785.62659" font-size="5px">Wik, Herthastr.</tspan></text>
<text style="word-spacing:0px;letter-spacing:0px" xml:space="preserve" font-size="15px" line-height="125%" y="781.198" x="771.38007"><tspan y="781.198" x="771.38007" font-size="5px">Gablenzstr.</tspan></text>
<text style="word-spacing:0px;letter-spacing:0px;text-anchor:end;text-align:end" xml:space="preserve" font-size="5px" line-height="125%" y="754.76172" x="823.15674"><tspan style="text-anchor:end;text-align:end" line-height="125%" y="754.76172" x="823.15674">KVG Btf.</tspan><tspan style="text-anchor:end;text-align:end" line-height="125%" y="761.01172" x="823.15674">Werftstr.</tspan></text>
<text style="word-spacing:0px;letter-spacing:0px" xml:space="preserve" font-size="15px" line-height="125%" y="754.11987" x="857.47681"><tspan y="754.11987" x="857.47681" font-size="5px">Karlstal</tspan></text>
<text style="word-spacing:0px;letter-spacing:0px" xml:space="preserve" font-size="15px" line-height="125%" y="740.8775" x="876.62573"><tspan y="740.8775" x="876.62573" font-size="5px">Vinetaplatz</tspan></text>
<text style="word-spacing:0px;letter-spacing:0px" xml:space="preserve" font-size="15px" line-height="125%" y="705.48376" x="872.90259"><tspan y="705.48376" x="872.90259" font-size="5px">Augustenstr.</tspan></text>
<text style="word-spacing:0px;letter-spacing:0px" xml:space="preserve" font-size="15px" line-height="125%" y="679.04272" x="913.05103"><tspan y="679.04272" x="913.05103" font-size="5px">HDW</tspan></text>
<text style="word-spacing:0px;letter-spacing:0px" xml:space="preserve" font-size="15px" line-height="125%" y="724.05756" x="880.46924"><tspan y="724.05756" x="880.46924" font-size="5px">Kieler Str.</tspan></text>
<text style="word-spacing:0px;letter-spacing:0px" xml:space="preserve" font-size="5px" line-height="125%" y="672.24316" x="934.19611"><tspan y="672.24316" x="934.19611">Groe</tspan><tspan y="678.49316" x="934.19611">Ziegelstr.</tspan></text>
<text style="word-spacing:0px;letter-spacing:0px" xml:space="preserve" font-size="5px" line-height="125%" y="646.34534" x="992.88599"><tspan style="text-anchor:end;text-align:end" line-height="125%" y="646.34534" x="992.88599">Franzius-</tspan><tspan style="text-anchor:end;text-align:end" line-height="125%" y="652.59534" x="992.88599">allee</tspan></text>
<text style="word-spacing:0px;letter-spacing:0px" xml:space="preserve" font-size="5px" line-height="125%" y="619.91919" x="1018.5389"><tspan style="text-anchor:end;text-align:end" line-height="125%" y="619.91919" x="1018.5389">Ellerbeker</tspan><tspan style="text-anchor:end;text-align:end" line-height="125%" y="626.16919" x="1018.5389">Markt</tspan></text>
<text style="word-spacing:0px;letter-spacing:0px" xml:space="preserve" font-size="5px" line-height="125%" y="602.06476" x="1046.4697"><tspan y="602.06476" x="1046.4697">Kieler</tspan><tspan y="608.31476" x="1046.4697">Kuhle</tspan></text>
<text style="word-spacing:0px;letter-spacing:0px;text-anchor:end;text-align:end" xml:space="preserve" font-size="5px" line-height="125%" y="601.59137" x="1090.7179"><tspan style="text-anchor:end;text-align:end" line-height="125%" y="601.59137" x="1090.7179">Seefisch-</tspan><tspan style="text-anchor:end;text-align:end" line-height="125%" y="607.84137" x="1090.7179">markt</tspan></text>
<text style="word-spacing:0px;letter-spacing:0px" xml:space="preserve" font-size="5px" line-height="125%" y="607.79004" x="1104.2134"><tspan font-size="5px" line-height="125%" y="607.79004" x="1104.2134" font-family="&apos;Lucida Grande&apos;">Wellingdorf</tspan></text>
</g></g></svg>
